<svg width="326" height="199" viewBox="0 0 326 199" fill="none" xmlns="http://www.w3.org/2000/svg">
<g clip-path="url(#clip0_236_34)">
<rect width="326" height="199" fill="#252424"/>
<circle cx="35" cy="101" r="15.5" fill="#D9D9D9" stroke="#008000" stroke-width="5"/>
<circle cx="242" cy="101" r="15.5" fill="#D9D9D9" stroke="#008000" stroke-width="5"/>
<circle cx="162" cy="100" r="15.5" fill="#D9D9D9" stroke="#008000" stroke-width="5"/>
<path d="M157.253 108.014V106.735L162.054 101.48C162.618 100.864 163.082 100.329 163.446 99.8745C163.811 99.4152 164.081 98.9843 164.256 98.5819C164.436 98.1747 164.526 97.7485 164.526 97.3034C164.526 96.7921 164.403 96.3494 164.157 95.9753C163.915 95.6013 163.584 95.3124 163.162 95.1088C162.741 94.9052 162.267 94.8034 161.742 94.8034C161.183 94.8034 160.695 94.9194 160.279 95.1515C159.867 95.3787 159.547 95.6983 159.32 96.1103C159.097 96.5222 158.986 97.0051 158.986 97.5591H157.31C157.31 96.7069 157.507 95.9587 157.9 95.3148C158.293 94.6709 158.828 94.169 159.505 93.8091C160.186 93.4493 160.951 93.2694 161.799 93.2694C162.651 93.2694 163.406 93.4493 164.064 93.8091C164.722 94.169 165.239 94.6543 165.613 95.2651C165.987 95.8759 166.174 96.5553 166.174 97.3034C166.174 97.8385 166.077 98.3617 165.883 98.873C165.693 99.3797 165.362 99.9455 164.888 100.57C164.419 101.191 163.768 101.948 162.935 102.843L159.668 106.338V106.451H166.429V108.014H157.253Z" fill="black"/>
<path d="M169.625 60.5L169.307 61.4481L169.307 61.4481L169.625 60.5ZM168.647 82.2276C168.761 82.7679 169.292 83.1131 169.832 82.9987L178.637 81.1335C179.177 81.0191 179.523 80.4883 179.408 79.948C179.294 79.4077 178.763 79.0625 178.223 79.177L170.396 80.8349L168.738 73.0086C168.624 72.4683 168.093 72.123 167.553 72.2375C167.013 72.352 166.667 72.8827 166.782 73.423L168.647 82.2276ZM152.88 81.2541C147.044 78.0576 144.82 75.0594 144.495 72.6159C144.176 70.2216 145.632 67.8754 148.431 65.8224C151.201 63.7912 155.069 62.2273 158.967 61.4128C162.881 60.595 166.671 60.5643 169.307 61.4481L169.943 59.5519C166.834 58.5094 162.644 58.6012 158.558 59.4551C154.455 60.3125 150.303 61.9697 147.249 64.2096C144.224 66.4277 142.05 69.4025 142.513 72.8797C142.969 76.3077 145.937 79.7315 151.919 83.0082L152.88 81.2541ZM169.307 61.4481C171.857 62.3028 173.045 63.8625 173.502 65.7259C173.979 67.6723 173.674 70.0403 172.975 72.4235C172.282 74.7865 171.236 77.0512 170.355 78.7362C169.916 79.5758 169.521 80.2649 169.237 80.7426C169.095 80.9813 168.981 81.1668 168.903 81.2916C168.864 81.3539 168.834 81.401 168.815 81.432C168.805 81.4474 168.797 81.4588 168.793 81.4661C168.79 81.4697 168.789 81.4723 168.788 81.4738C168.787 81.4746 168.787 81.4751 168.787 81.4753C168.787 81.4754 168.787 81.4754 168.787 81.4754C168.787 81.4753 168.787 81.4752 169.625 82.0204C170.464 82.5656 170.464 82.5653 170.464 82.565C170.464 82.5647 170.464 82.5643 170.465 82.5639C170.465 82.5631 170.466 82.5619 170.467 82.5606C170.469 82.5578 170.471 82.554 170.474 82.5491C170.48 82.5393 170.489 82.5253 170.501 82.5073C170.524 82.4711 170.557 82.4185 170.6 82.3505C170.685 82.2146 170.806 82.0168 170.956 81.7648C171.256 81.2612 171.669 80.54 172.127 79.663C173.041 77.9149 174.15 75.5219 174.894 72.9863C175.631 70.4711 176.045 67.6997 175.444 65.2499C174.824 62.717 173.139 60.6235 169.943 59.5519L169.307 61.4481Z" fill="white"/>
<path d="M169.625 60.5L169.307 61.4481L169.307 61.4481L169.625 60.5ZM168.647 82.2276C168.761 82.7679 169.292 83.1131 169.832 82.9987L178.637 81.1335C179.177 81.0191 179.523 80.4883 179.408 79.948C179.294 79.4077 178.763 79.0625 178.223 79.177L170.396 80.8349L168.738 73.0086C168.624 72.4683 168.093 72.123 167.553 72.2375C167.013 72.352 166.667 72.8827 166.782 73.423L168.647 82.2276ZM152.88 81.2541C147.044 78.0576 144.82 75.0594 144.495 72.6159C144.176 70.2216 145.632 67.8754 148.431 65.8224C151.201 63.7912 155.069 62.2273 158.967 61.4128C162.881 60.595 166.671 60.5643 169.307 61.4481L169.943 59.5519C166.834 58.5094 162.644 58.6012 158.558 59.4551C154.455 60.3125 150.303 61.9697 147.249 64.2096C144.224 66.4277 142.05 69.4025 142.513 72.8797C142.969 76.3077 145.937 79.7315 151.919 83.0082L152.88 81.2541ZM169.307 61.4481C171.857 62.3028 173.045 63.8625 173.502 65.7259C173.979 67.6723 173.674 70.0403 172.975 72.4235C172.282 74.7865 171.236 77.0512 170.355 78.7362C169.916 79.5758 169.521 80.2649 169.237 80.7426C169.095 80.9813 168.981 81.1668 168.903 81.2916C168.864 81.3539 168.834 81.401 168.815 81.432C168.805 81.4474 168.797 81.4588 168.793 81.4661C168.79 81.4697 168.789 81.4723 168.788 81.4738C168.787 81.4746 168.787 81.4751 168.787 81.4753C168.787 81.4754 168.787 81.4754 168.787 81.4754C168.787 81.4753 168.787 81.4752 169.625 82.0204C170.464 82.5656 170.464 82.5653 170.464 82.565C170.464 82.5647 170.464 82.5643 170.465 82.5639C170.465 82.5631 170.466 82.5619 170.467 82.5606C170.469 82.5578 170.471 82.554 170.474 82.5491C170.48 82.5393 170.489 82.5253 170.501 82.5073C170.524 82.4711 170.557 82.4185 170.6 82.3505C170.685 82.2146 170.806 82.0168 170.956 81.7648C171.256 81.2612 171.669 80.54 172.127 79.663C173.041 77.9149 174.15 75.5219 174.894 72.9863C175.631 70.4711 176.045 67.6997 175.444 65.2499C174.824 62.717 173.139 60.6235 169.943 59.5519L169.307 61.4481Z" fill="white"/>
<path d="M150.707 101.739C151.097 101.349 151.098 100.716 150.707 100.325L144.345 93.959C143.955 93.5684 143.322 93.5682 142.931 93.9586C142.54 94.349 142.54 94.9821 142.931 95.3728L148.586 101.031L142.927 106.686C142.536 107.077 142.536 107.71 142.926 108.101C143.317 108.491 143.95 108.492 144.341 108.101L150.707 101.739ZM52.9997 102L150 102.032L150 100.032L53.0003 100L52.9997 102Z" fill="white"/>
<path d="M226.707 100.707C227.098 100.317 227.098 99.6834 226.707 99.2929L220.343 92.9289C219.953 92.5384 219.319 92.5384 218.929 92.9289C218.538 93.3195 218.538 93.9526 218.929 94.3431L224.586 100L218.929 105.657C218.538 106.047 218.538 106.681 218.929 107.071C219.319 107.462 219.953 107.462 220.343 107.071L226.707 100.707ZM180 101L226 101L226 99L180 99L180 101Z" fill="white"/>
<path d="M36.7159 97.0909C36.6307 96.3712 36.285 95.8125 35.679 95.4148C35.0729 95.017 34.3295 94.8182 33.4489 94.8182C32.8049 94.8182 32.2415 94.9223 31.7585 95.1307C31.2803 95.339 30.9063 95.6255 30.6364 95.9901C30.3712 96.3546 30.2386 96.7689 30.2386 97.233C30.2386 97.6212 30.331 97.955 30.5156 98.2344C30.705 98.509 30.9465 98.7386 31.2401 98.9233C31.5336 99.1032 31.8414 99.2524 32.1634 99.3707C32.4853 99.4844 32.7812 99.5767 33.0511 99.6477L34.5284 100.045C34.9072 100.145 35.3286 100.282 35.7926 100.457C36.2614 100.633 36.7088 100.872 37.1349 101.175C37.5658 101.473 37.9209 101.857 38.2003 102.325C38.4796 102.794 38.6193 103.369 38.6193 104.051C38.6193 104.837 38.4134 105.547 38.0014 106.182C37.5942 106.816 36.9976 107.321 36.2116 107.695C35.4304 108.069 34.4811 108.256 33.3636 108.256C32.322 108.256 31.42 108.088 30.6577 107.751C29.9001 107.415 29.3035 106.946 28.8679 106.345C28.437 105.744 28.1932 105.045 28.1364 104.25H29.9545C30.0019 104.799 30.1866 105.254 30.5085 105.614C30.8352 105.969 31.2472 106.234 31.7443 106.409C32.2462 106.58 32.786 106.665 33.3636 106.665C34.036 106.665 34.6397 106.556 35.1747 106.338C35.7098 106.116 36.1335 105.808 36.446 105.415C36.7585 105.017 36.9148 104.553 36.9148 104.023C36.9148 103.54 36.7798 103.147 36.5099 102.844C36.2401 102.541 35.8849 102.295 35.4446 102.105C35.0043 101.916 34.5284 101.75 34.017 101.608L32.2273 101.097C31.0909 100.77 30.1913 100.304 29.5284 99.6974C28.8655 99.0914 28.5341 98.2983 28.5341 97.3182C28.5341 96.5038 28.7543 95.7936 29.1946 95.1875C29.6397 94.5767 30.2363 94.1032 30.9844 93.767C31.7372 93.4261 32.5777 93.2557 33.5057 93.2557C34.4432 93.2557 35.2765 93.4238 36.0057 93.7599C36.7348 94.0914 37.3125 94.5459 37.7386 95.1236C38.1695 95.7012 38.3968 96.357 38.4205 97.0909H36.7159Z" fill="black"/>
<path d="M237.761 108V93.4545H246.483V95.017H239.523V99.9318H245.83V101.494H239.523V108H237.761Z" fill="black"/>
<path d="M86.7614 96V81.4545H88.4375V86.8239H88.5795C88.7027 86.6345 88.8731 86.393 89.0909 86.0994C89.3134 85.8011 89.6307 85.536 90.0426 85.304C90.4593 85.0672 91.0227 84.9489 91.733 84.9489C92.6515 84.9489 93.4612 85.1785 94.1619 85.6378C94.8627 86.0971 95.4096 86.7481 95.8026 87.5909C96.1955 88.4337 96.392 89.428 96.392 90.5739C96.392 91.7292 96.1955 92.7306 95.8026 93.5781C95.4096 94.4209 94.8651 95.0743 94.169 95.5384C93.473 95.9976 92.6705 96.2273 91.7614 96.2273C91.0606 96.2273 90.4995 96.1113 90.0781 95.8793C89.6567 95.6425 89.3324 95.375 89.1051 95.0767C88.8778 94.7737 88.7027 94.5227 88.5795 94.3239H88.3807V96H86.7614ZM88.4091 90.5455C88.4091 91.3693 88.5298 92.0961 88.7713 92.7259C89.0128 93.3509 89.3655 93.8409 89.8295 94.196C90.2936 94.5464 90.8617 94.7216 91.5341 94.7216C92.2348 94.7216 92.8196 94.5369 93.2884 94.1676C93.7618 93.7936 94.117 93.2917 94.3537 92.6619C94.5952 92.0275 94.7159 91.322 94.7159 90.5455C94.7159 89.7784 94.5975 89.0871 94.3608 88.4716C94.1288 87.8513 93.776 87.3613 93.3026 87.0014C92.8338 86.6368 92.2443 86.4545 91.5341 86.4545C90.8523 86.4545 90.2794 86.6274 89.8153 86.973C89.3513 87.3139 89.0009 87.7921 88.7642 88.4077C88.5275 89.0185 88.4091 89.7311 88.4091 90.5455ZM101.74 89.6364L101.854 86.5114L99.2116 88.1875L98.5298 86.9943L101.314 85.5455L98.5298 84.0966L99.2116 82.9034L101.854 84.5795L101.74 81.4545H103.104L102.99 84.5795L105.632 82.9034L106.314 84.0966L103.53 85.5455L106.314 86.9943L105.632 88.1875L102.99 86.5114L103.104 89.6364H101.74ZM112.166 96.2557C111.475 96.2557 110.848 96.1255 110.284 95.8651C109.721 95.5999 109.273 95.2188 108.942 94.7216C108.61 94.2197 108.445 93.6136 108.445 92.9034C108.445 92.2784 108.568 91.7718 108.814 91.3835C109.06 90.9905 109.389 90.6828 109.801 90.4602C110.213 90.2377 110.668 90.072 111.165 89.9631C111.667 89.8494 112.171 89.7595 112.678 89.6932C113.34 89.608 113.878 89.544 114.29 89.5014C114.706 89.4541 115.009 89.3759 115.199 89.267C115.393 89.1581 115.49 88.9687 115.49 88.6989V88.642C115.49 87.9413 115.298 87.3968 114.915 87.0085C114.536 86.6203 113.961 86.4261 113.189 86.4261C112.389 86.4261 111.761 86.6013 111.307 86.9517C110.852 87.3021 110.533 87.6761 110.348 88.0739L108.757 87.5057C109.041 86.8428 109.42 86.3267 109.893 85.9574C110.372 85.5833 110.893 85.3229 111.456 85.1761C112.024 85.0246 112.583 84.9489 113.132 84.9489C113.482 84.9489 113.885 84.9915 114.339 85.0767C114.799 85.1572 115.241 85.3253 115.668 85.581C116.098 85.8366 116.456 86.2225 116.74 86.7386C117.024 87.2547 117.166 87.946 117.166 88.8125V96H115.49V94.5227H115.405C115.291 94.7595 115.102 95.0128 114.837 95.2827C114.571 95.5526 114.219 95.7822 113.778 95.9716C113.338 96.161 112.801 96.2557 112.166 96.2557ZM112.422 94.75C113.085 94.75 113.643 94.6198 114.098 94.3594C114.557 94.099 114.903 93.7628 115.135 93.3509C115.372 92.9389 115.49 92.5057 115.49 92.0511V90.517C115.419 90.6023 115.263 90.6804 115.021 90.7514C114.785 90.8177 114.51 90.8769 114.197 90.929C113.89 90.9763 113.589 91.0189 113.295 91.0568C113.007 91.09 112.772 91.1184 112.592 91.142C112.157 91.1989 111.75 91.2912 111.371 91.419C110.997 91.5421 110.694 91.7292 110.462 91.9801C110.234 92.2263 110.121 92.5625 110.121 92.9886C110.121 93.571 110.336 94.0114 110.767 94.3097C111.203 94.6032 111.754 94.75 112.422 94.75Z" fill="white"/>
<path d="M124.761 53V38.4545H126.438V43.8239H126.58C126.703 43.6345 126.873 43.393 127.091 43.0994C127.313 42.8011 127.631 42.536 128.043 42.304C128.459 42.0672 129.023 41.9489 129.733 41.9489C130.652 41.9489 131.461 42.1785 132.162 42.6378C132.863 43.0971 133.41 43.7481 133.803 44.5909C134.196 45.4337 134.392 46.428 134.392 47.5739C134.392 48.7292 134.196 49.7306 133.803 50.5781C133.41 51.4209 132.865 52.0743 132.169 52.5384C131.473 52.9976 130.67 53.2273 129.761 53.2273C129.061 53.2273 128.5 53.1113 128.078 52.8793C127.657 52.6425 127.332 52.375 127.105 52.0767C126.878 51.7737 126.703 51.5227 126.58 51.3239H126.381V53H124.761ZM126.409 47.5455C126.409 48.3693 126.53 49.0961 126.771 49.7259C127.013 50.3509 127.366 50.8409 127.83 51.196C128.294 51.5464 128.862 51.7216 129.534 51.7216C130.235 51.7216 130.82 51.5369 131.288 51.1676C131.762 50.7936 132.117 50.2917 132.354 49.6619C132.595 49.0275 132.716 48.322 132.716 47.5455C132.716 46.7784 132.598 46.0871 132.361 45.4716C132.129 44.8513 131.776 44.3613 131.303 44.0014C130.834 43.6368 130.244 43.4545 129.534 43.4545C128.852 43.4545 128.279 43.6274 127.815 43.973C127.351 44.3139 127.001 44.7921 126.764 45.4077C126.527 46.0185 126.409 46.7311 126.409 47.5455ZM137.183 53V38.4545H138.859V43.8239H139.001C139.125 43.6345 139.295 43.393 139.513 43.0994C139.735 42.8011 140.053 42.536 140.464 42.304C140.881 42.0672 141.445 41.9489 142.155 41.9489C143.073 41.9489 143.883 42.1785 144.584 42.6378C145.285 43.0971 145.831 43.7481 146.224 44.5909C146.617 45.4337 146.814 46.428 146.814 47.5739C146.814 48.7292 146.617 49.7306 146.224 50.5781C145.831 51.4209 145.287 52.0743 144.591 52.5384C143.895 52.9976 143.092 53.2273 142.183 53.2273C141.482 53.2273 140.921 53.1113 140.5 52.8793C140.079 52.6425 139.754 52.375 139.527 52.0767C139.3 51.7737 139.125 51.5227 139.001 51.3239H138.803V53H137.183ZM138.831 47.5455C138.831 48.3693 138.952 49.0961 139.193 49.7259C139.435 50.3509 139.787 50.8409 140.251 51.196C140.715 51.5464 141.284 51.7216 141.956 51.7216C142.657 51.7216 143.241 51.5369 143.71 51.1676C144.184 50.7936 144.539 50.2917 144.776 49.6619C145.017 49.0275 145.138 48.322 145.138 47.5455C145.138 46.7784 145.019 46.0871 144.783 45.4716C144.551 44.8513 144.198 44.3613 143.724 44.0014C143.256 43.6368 142.666 43.4545 141.956 43.4545C141.274 43.4545 140.701 43.6274 140.237 43.973C139.773 44.3139 139.423 44.7921 139.186 45.4077C138.949 46.0185 138.831 46.7311 138.831 47.5455ZM152.162 46.6364L152.276 43.5114L149.634 45.1875L148.952 43.9943L151.736 42.5455L148.952 41.0966L149.634 39.9034L152.276 41.5795L152.162 38.4545H153.526L153.412 41.5795L156.054 39.9034L156.736 41.0966L153.952 42.5455L156.736 43.9943L156.054 45.1875L153.412 43.5114L153.526 46.6364H152.162ZM162.588 53.2557C161.897 53.2557 161.269 53.1255 160.706 52.8651C160.143 52.5999 159.695 52.2188 159.364 51.7216C159.032 51.2197 158.866 50.6136 158.866 49.9034C158.866 49.2784 158.99 48.7718 159.236 48.3835C159.482 47.9905 159.811 47.6828 160.223 47.4602C160.635 47.2377 161.089 47.072 161.587 46.9631C162.089 46.8494 162.593 46.7595 163.099 46.6932C163.762 46.608 164.3 46.544 164.712 46.5014C165.128 46.4541 165.431 46.3759 165.621 46.267C165.815 46.1581 165.912 45.9687 165.912 45.6989V45.642C165.912 44.9413 165.72 44.3968 165.337 44.0085C164.958 43.6203 164.383 43.4261 163.611 43.4261C162.811 43.4261 162.183 43.6013 161.729 43.9517C161.274 44.3021 160.955 44.6761 160.77 45.0739L159.179 44.5057C159.463 43.8428 159.842 43.3267 160.315 42.9574C160.794 42.5833 161.314 42.3229 161.878 42.1761C162.446 42.0246 163.005 41.9489 163.554 41.9489C163.904 41.9489 164.307 41.9915 164.761 42.0767C165.221 42.1572 165.663 42.3253 166.089 42.581C166.52 42.8366 166.878 43.2225 167.162 43.7386C167.446 44.2547 167.588 44.946 167.588 45.8125V53H165.912V51.5227H165.827C165.713 51.7595 165.524 52.0128 165.259 52.2827C164.993 52.5526 164.641 52.7822 164.2 52.9716C163.76 53.161 163.223 53.2557 162.588 53.2557ZM162.844 51.75C163.507 51.75 164.065 51.6198 164.52 51.3594C164.979 51.099 165.325 50.7628 165.557 50.3509C165.794 49.9389 165.912 49.5057 165.912 49.0511V47.517C165.841 47.6023 165.685 47.6804 165.443 47.7514C165.206 47.8177 164.932 47.8769 164.619 47.929C164.312 47.9763 164.011 48.0189 163.717 48.0568C163.429 48.09 163.194 48.1184 163.014 48.142C162.579 48.1989 162.171 48.2912 161.793 48.419C161.419 48.5421 161.116 48.7292 160.884 48.9801C160.656 49.2263 160.543 49.5625 160.543 49.9886C160.543 50.571 160.758 51.0114 161.189 51.3097C161.625 51.6032 162.176 51.75 162.844 51.75ZM174.909 52.0057V42.6307H176.5V52.0057H174.909ZM171.017 48.1136V46.5227H180.392V48.1136H171.017ZM184.428 46.8636C184.428 45.0739 184.66 43.4285 185.124 41.9276C185.592 40.4219 186.26 39.0369 187.126 37.7727H188.604C188.263 38.2415 187.943 38.8191 187.645 39.5057C187.351 40.1875 187.093 40.938 186.871 41.7571C186.648 42.5715 186.473 43.4143 186.345 44.2855C186.222 45.1567 186.161 46.0161 186.161 46.8636C186.161 47.9905 186.269 49.134 186.487 50.294C186.705 51.4541 186.999 52.5312 187.368 53.5256C187.737 54.5199 188.149 55.3295 188.604 55.9545H187.126C186.26 54.6903 185.592 53.3078 185.124 51.8068C184.66 50.3011 184.428 48.6534 184.428 46.8636ZM192.327 42.0909L194.941 46.5511L197.554 42.0909H199.486L195.963 47.5455L199.486 53H197.554L194.941 48.767L192.327 53H190.395L193.861 47.5455L190.395 42.0909H192.327Z" fill="white"/>
<path d="M206.216 45.983V44.4489H214.966V45.983H206.216ZM206.216 50.1875V48.6534H214.966V50.1875H206.216ZM221.928 53.2557C221.237 53.2557 220.609 53.1255 220.046 52.8651C219.482 52.5999 219.035 52.2188 218.703 51.7216C218.372 51.2197 218.206 50.6136 218.206 49.9034C218.206 49.2784 218.329 48.7718 218.576 48.3835C218.822 47.9905 219.151 47.6828 219.563 47.4602C219.975 47.2377 220.429 47.072 220.926 46.9631C221.428 46.8494 221.933 46.7595 222.439 46.6932C223.102 46.608 223.64 46.544 224.051 46.5014C224.468 46.4541 224.771 46.3759 224.961 46.267C225.155 46.1581 225.252 45.9687 225.252 45.6989V45.642C225.252 44.9413 225.06 44.3968 224.676 44.0085C224.298 43.6203 223.722 43.4261 222.951 43.4261C222.15 43.4261 221.523 43.6013 221.069 43.9517C220.614 44.3021 220.294 44.6761 220.11 45.0739L218.519 44.5057C218.803 43.8428 219.182 43.3267 219.655 42.9574C220.133 42.5833 220.654 42.3229 221.218 42.1761C221.786 42.0246 222.345 41.9489 222.894 41.9489C223.244 41.9489 223.647 41.9915 224.101 42.0767C224.56 42.1572 225.003 42.3253 225.429 42.581C225.86 42.8366 226.218 43.2225 226.502 43.7386C226.786 44.2547 226.928 44.946 226.928 45.8125V53H225.252V51.5227H225.167C225.053 51.7595 224.864 52.0128 224.598 52.2827C224.333 52.5526 223.98 52.7822 223.54 52.9716C223.1 53.161 222.562 53.2557 221.928 53.2557ZM222.184 51.75C222.846 51.75 223.405 51.6198 223.86 51.3594C224.319 51.099 224.665 50.7628 224.897 50.3509C225.133 49.9389 225.252 49.5057 225.252 49.0511V47.517C225.181 47.6023 225.025 47.6804 224.783 47.7514C224.546 47.8177 224.272 47.8769 223.959 47.929C223.651 47.9763 223.351 48.0189 223.057 48.0568C222.768 48.09 222.534 48.1184 222.354 48.142C221.918 48.1989 221.511 48.2912 221.132 48.419C220.758 48.5421 220.455 48.7292 220.223 48.9801C219.996 49.2263 219.882 49.5625 219.882 49.9886C219.882 50.571 220.098 51.0114 220.529 51.3097C220.964 51.6032 221.516 51.75 222.184 51.75ZM233.567 46.8636C233.567 48.6534 233.332 50.3011 232.864 51.8068C232.4 53.3078 231.734 54.6903 230.868 55.9545H229.391C229.732 55.4858 230.049 54.9081 230.342 54.2216C230.641 53.5398 230.901 52.7917 231.124 51.9773C231.346 51.1581 231.519 50.313 231.642 49.4418C231.77 48.5658 231.834 47.7064 231.834 46.8636C231.834 45.7367 231.725 44.5933 231.507 43.4332C231.289 42.2732 230.996 41.196 230.626 40.2017C230.257 39.2074 229.845 38.3977 229.391 37.7727H230.868C231.734 39.0369 232.4 40.4219 232.864 41.9276C233.332 43.4285 233.567 45.0739 233.567 46.8636Z" fill="white"/>
</g>
<defs>
<clipPath id="clip0_236_34">
<rect width="326" height="199" fill="white"/>
</clipPath>
</defs>
</svg>
