<svg width="431" height="199" viewBox="0 0 431 199" fill="none" xmlns="http://www.w3.org/2000/svg">
<g clip-path="url(#clip0_214_34)">
<rect width="431" height="199" fill="#252424"/>
<circle cx="114.172" cy="95" r="15.5" fill="#D9D9D9" stroke="#008000" stroke-width="5"/>
<circle cx="34" cy="96" r="15.5" fill="#D9D9D9" stroke="#008000" stroke-width="5"/>
<circle cx="370" cy="96" r="15.5" fill="#D9D9D9" stroke="#008000" stroke-width="5"/>
<circle cx="290" cy="95" r="15.5" fill="#D9D9D9" stroke="#008000" stroke-width="5"/>
<path d="M285.253 103.014V101.735L290.054 96.4796C290.618 95.8641 291.082 95.329 291.446 94.8745C291.811 94.4152 292.081 93.9843 292.256 93.5819C292.436 93.1747 292.526 92.7485 292.526 92.3034C292.526 91.7921 292.403 91.3494 292.157 90.9753C291.915 90.6013 291.584 90.3124 291.162 90.1088C290.741 89.9052 290.267 89.8034 289.742 89.8034C289.183 89.8034 288.695 89.9194 288.279 90.1515C287.867 90.3787 287.547 90.6983 287.32 91.1103C287.097 91.5222 286.986 92.0051 286.986 92.5591H285.31C285.31 91.7069 285.507 90.9587 285.9 90.3148C286.293 89.6709 286.828 89.169 287.505 88.8091C288.186 88.4493 288.951 88.2694 289.799 88.2694C290.651 88.2694 291.406 88.4493 292.064 88.8091C292.722 89.169 293.239 89.6543 293.613 90.2651C293.987 90.8759 294.174 91.5553 294.174 92.3034C294.174 92.8385 294.077 93.3617 293.883 93.873C293.693 94.3797 293.362 94.9455 292.888 95.5705C292.419 96.1908 291.768 96.9483 290.935 97.8432L287.668 101.338V101.451H294.429V103.014H285.253Z" fill="black"/>
<path d="M114.791 88.4545V103H113.03V90.3011H112.945L109.393 92.6591V90.8693L113.03 88.4545H114.791Z" fill="black"/>
<path d="M275.104 85.439C275.653 85.3818 276.052 84.89 275.995 84.3407L275.061 75.3893C275.004 74.8399 274.512 74.4411 273.963 74.4983C273.414 74.5556 273.015 75.0473 273.072 75.5966L273.902 83.5535L265.945 84.3831C265.396 84.4404 264.997 84.9321 265.054 85.4814C265.111 86.0307 265.603 86.4296 266.152 86.3723L275.104 85.439ZM130.762 85.6513C155.764 64.4331 174.212 50.3438 195.061 48.4486C215.859 46.5579 239.333 56.8001 274.37 85.221L275.63 83.6678C240.535 55.1997 216.516 44.49 194.88 46.4568C173.293 48.4191 154.366 62.9965 129.468 84.1264L130.762 85.6513Z" fill="white"/>
<path d="M277.002 107.007C277.55 107.071 277.943 107.568 277.878 108.117L276.828 117.055C276.764 117.604 276.267 117.996 275.718 117.932C275.17 117.867 274.777 117.37 274.842 116.822L275.775 108.876L267.83 107.943C267.281 107.879 266.889 107.382 266.953 106.833C267.018 106.285 267.515 105.892 268.063 105.957L277.002 107.007ZM132.627 107.666C157.752 127.911 176.29 141.351 197.16 143.048C217.985 144.742 241.404 134.746 276.265 107.215L277.505 108.785C242.577 136.368 218.63 146.801 196.998 145.042C175.412 143.286 156.401 129.391 131.372 109.223L132.627 107.666Z" fill="white"/>
<path d="M297.625 55.5L297.307 56.4481L297.625 55.5ZM296.647 77.2276C296.761 77.7679 297.292 78.1131 297.832 77.9987L306.637 76.1335C307.177 76.0191 307.523 75.4883 307.408 74.948C307.294 74.4077 306.763 74.0625 306.223 74.177L298.396 75.8349L296.738 68.0086C296.624 67.4683 296.093 67.123 295.553 67.2375C295.013 67.352 294.667 67.8827 294.782 68.423L296.647 77.2276ZM280.88 76.2541C275.044 73.0576 272.82 70.0594 272.495 67.6159C272.176 65.2216 273.632 62.8754 276.431 60.8224C279.201 58.7912 283.069 57.2273 286.967 56.4128C290.881 55.595 294.671 55.5643 297.307 56.4481L297.943 54.5519C294.834 53.5094 290.644 53.6012 286.558 54.4551C282.455 55.3125 278.303 56.9697 275.249 59.2096C272.224 61.4277 270.05 64.4025 270.513 67.8797C270.969 71.3077 273.937 74.7315 279.919 78.0082L280.88 76.2541ZM297.307 56.4481C299.857 57.3028 301.045 58.8625 301.502 60.7259C301.979 62.6723 301.674 65.0403 300.975 67.4235C300.282 69.7865 299.236 72.0512 298.355 73.7362C297.916 74.5758 297.521 75.2649 297.237 75.7426C297.095 75.9813 296.981 76.1668 296.903 76.2916C296.864 76.3539 296.834 76.401 296.815 76.432C296.805 76.4474 296.797 76.4588 296.793 76.4661C296.79 76.4697 296.789 76.4723 296.788 76.4738C296.787 76.4746 296.787 76.4751 296.787 76.4753C296.787 76.4754 296.787 76.4754 296.787 76.4754C296.787 76.4753 296.787 76.4752 297.625 77.0204C298.464 77.5656 298.464 77.5653 298.464 77.565C298.464 77.5647 298.464 77.5643 298.465 77.5639C298.465 77.5631 298.466 77.5619 298.467 77.5606C298.469 77.5578 298.471 77.554 298.474 77.5491C298.48 77.5393 298.489 77.5253 298.501 77.5073C298.524 77.4711 298.557 77.4185 298.6 77.3505C298.685 77.2146 298.806 77.0168 298.956 76.7648C299.256 76.2612 299.669 75.54 300.127 74.663C301.041 72.9149 302.15 70.5219 302.894 67.9863C303.631 65.4711 304.045 62.6997 303.444 60.2499C302.824 57.717 301.139 55.6235 297.943 54.5519L297.307 56.4481Z" fill="white"/>
<path d="M124.456 54.3025L124.138 55.2506L124.456 54.3025ZM123.477 76.0301C123.592 76.5704 124.123 76.9156 124.663 76.8012L133.468 74.936C134.008 74.8216 134.353 74.2908 134.239 73.7505C134.124 73.2102 133.593 72.865 133.053 72.9795L125.227 74.6374L123.569 66.811C123.454 66.2707 122.924 65.9255 122.383 66.04C121.843 66.1544 121.498 66.6852 121.612 67.2255L123.477 76.0301ZM107.71 75.0565C101.875 71.8601 99.6508 68.8619 99.3256 66.4184C99.0069 64.0241 100.462 61.6779 103.262 59.6249C106.032 57.5937 109.9 56.0298 113.797 55.2153C117.711 54.3975 121.502 54.3668 124.138 55.2506L124.774 53.3544C121.664 52.3119 117.475 52.4037 113.388 53.2576C109.286 54.115 105.134 55.7722 102.079 58.0121C99.0542 60.2302 96.8803 63.205 97.3431 66.6822C97.7993 70.1102 100.767 73.534 106.75 76.8106L107.71 75.0565ZM124.138 55.2506C126.687 56.1053 127.876 57.665 128.332 59.5284C128.809 61.4748 128.504 63.8428 127.805 66.226C127.112 68.589 126.067 70.8537 125.186 72.5387C124.746 73.3783 124.352 74.0674 124.068 74.5451C123.926 74.7838 123.812 74.9693 123.734 75.094C123.695 75.1564 123.665 75.2035 123.645 75.2344C123.635 75.2499 123.628 75.2613 123.623 75.2686C123.621 75.2722 123.619 75.2748 123.618 75.2763C123.618 75.2771 123.618 75.2776 123.617 75.2778C123.617 75.2779 123.617 75.2779 123.617 75.2779C123.617 75.2778 123.617 75.2777 124.456 75.8229C125.294 76.3681 125.294 76.3678 125.295 76.3674C125.295 76.3672 125.295 76.3668 125.295 76.3664C125.296 76.3655 125.296 76.3644 125.297 76.363C125.299 76.3603 125.302 76.3565 125.305 76.3516C125.311 76.3418 125.32 76.3278 125.332 76.3097C125.355 76.2736 125.388 76.221 125.43 76.153C125.515 76.0171 125.637 75.8193 125.787 75.5673C126.086 75.0637 126.499 74.3425 126.958 73.4655C127.872 71.7174 128.981 69.3244 129.724 66.7888C130.462 64.2735 130.875 61.5022 130.275 59.0524C129.654 56.5195 127.97 54.426 124.774 53.3544L124.138 55.2506Z" fill="white"/>
<path d="M290.744 49.2557C290.053 49.2557 289.426 49.1255 288.862 48.8651C288.299 48.5999 287.851 48.2188 287.52 47.7216C287.188 47.2197 287.023 46.6136 287.023 45.9034C287.023 45.2784 287.146 44.7718 287.392 44.3835C287.638 43.9905 287.967 43.6828 288.379 43.4602C288.791 43.2377 289.246 43.072 289.743 42.9631C290.245 42.8494 290.749 42.7595 291.256 42.6932C291.919 42.608 292.456 42.544 292.868 42.5014C293.285 42.4541 293.588 42.3759 293.777 42.267C293.971 42.1581 294.068 41.9687 294.068 41.6989V41.642C294.068 40.9413 293.876 40.3968 293.493 40.0085C293.114 39.6203 292.539 39.4261 291.767 39.4261C290.967 39.4261 290.339 39.6013 289.885 39.9517C289.43 40.3021 289.111 40.6761 288.926 41.0739L287.335 40.5057C287.619 39.8428 287.998 39.3267 288.472 38.9574C288.95 38.5833 289.471 38.3229 290.034 38.1761C290.602 38.0246 291.161 37.9489 291.71 37.9489C292.061 37.9489 292.463 37.9915 292.918 38.0767C293.377 38.1572 293.82 38.3253 294.246 38.581C294.677 38.8366 295.034 39.2225 295.318 39.7386C295.602 40.2547 295.744 40.946 295.744 41.8125V49H294.068V47.5227H293.983C293.869 47.7595 293.68 48.0128 293.415 48.2827C293.15 48.5526 292.797 48.7822 292.357 48.9716C291.916 49.161 291.379 49.2557 290.744 49.2557ZM291 47.75C291.663 47.75 292.222 47.6198 292.676 47.3594C293.135 47.099 293.481 46.7628 293.713 46.3509C293.95 45.9389 294.068 45.5057 294.068 45.0511V43.517C293.997 43.6023 293.841 43.6804 293.599 43.7514C293.363 43.8177 293.088 43.8769 292.776 43.929C292.468 43.9763 292.167 44.0189 291.874 44.0568C291.585 44.09 291.35 44.1184 291.17 44.142C290.735 44.1989 290.328 44.2912 289.949 44.419C289.575 44.5421 289.272 44.7292 289.04 44.9801C288.813 45.2263 288.699 45.5625 288.699 45.9886C288.699 46.571 288.914 47.0114 289.345 47.3097C289.781 47.6032 290.332 47.75 291 47.75Z" fill="white"/>
<path d="M111.761 49V34.4545H113.438V39.8239H113.58C113.703 39.6345 113.873 39.393 114.091 39.0994C114.313 38.8011 114.631 38.536 115.043 38.304C115.459 38.0672 116.023 37.9489 116.733 37.9489C117.652 37.9489 118.461 38.1785 119.162 38.6378C119.863 39.0971 120.41 39.7481 120.803 40.5909C121.196 41.4337 121.392 42.428 121.392 43.5739C121.392 44.7292 121.196 45.7306 120.803 46.5781C120.41 47.4209 119.865 48.0743 119.169 48.5384C118.473 48.9976 117.67 49.2273 116.761 49.2273C116.061 49.2273 115.5 49.1113 115.078 48.8793C114.657 48.6425 114.332 48.375 114.105 48.0767C113.878 47.7737 113.703 47.5227 113.58 47.3239H113.381V49H111.761ZM113.409 43.5455C113.409 44.3693 113.53 45.0961 113.771 45.7259C114.013 46.3509 114.366 46.8409 114.83 47.196C115.294 47.5464 115.862 47.7216 116.534 47.7216C117.235 47.7216 117.82 47.5369 118.288 47.1676C118.762 46.7936 119.117 46.2917 119.354 45.6619C119.595 45.0275 119.716 44.322 119.716 43.5455C119.716 42.7784 119.598 42.0871 119.361 41.4716C119.129 40.8513 118.776 40.3613 118.303 40.0014C117.834 39.6368 117.244 39.4545 116.534 39.4545C115.852 39.4545 115.279 39.6274 114.815 39.973C114.351 40.3139 114.001 40.7921 113.764 41.4077C113.527 42.0185 113.409 42.7311 113.409 43.5455Z" fill="white"/>
<path d="M98.7071 95.7071C99.0976 95.3166 99.0976 94.6834 98.7071 94.2929L92.3431 87.9289C91.9526 87.5384 91.3195 87.5384 90.9289 87.9289C90.5384 88.3195 90.5384 88.9526 90.9289 89.3431L96.5858 95L90.9289 100.657C90.5384 101.047 90.5384 101.681 90.9289 102.071C91.3195 102.462 91.9526 102.462 92.3431 102.071L98.7071 95.7071ZM52 96L98 96L98 94L52 94L52 96Z" fill="white"/>
<path d="M354.707 95.7071C355.098 95.3166 355.098 94.6834 354.707 94.2929L348.343 87.9289C347.953 87.5384 347.319 87.5384 346.929 87.9289C346.538 88.3195 346.538 88.9526 346.929 89.3431L352.586 95L346.929 100.657C346.538 101.047 346.538 101.681 346.929 102.071C347.319 102.462 347.953 102.462 348.343 102.071L354.707 95.7071ZM308 96L354 96L354 94L308 94L308 96Z" fill="white"/>
<path d="M35.7159 92.0909C35.6307 91.3712 35.285 90.8125 34.679 90.4148C34.0729 90.017 33.3295 89.8182 32.4489 89.8182C31.8049 89.8182 31.2415 89.9223 30.7585 90.1307C30.2803 90.339 29.9063 90.6255 29.6364 90.9901C29.3712 91.3546 29.2386 91.7689 29.2386 92.233C29.2386 92.6212 29.331 92.955 29.5156 93.2344C29.705 93.509 29.9465 93.7386 30.2401 93.9233C30.5336 94.1032 30.8414 94.2524 31.1634 94.3707C31.4853 94.4844 31.7812 94.5767 32.0511 94.6477L33.5284 95.0455C33.9072 95.1449 34.3286 95.2822 34.7926 95.4574C35.2614 95.6326 35.7088 95.8717 36.1349 96.1747C36.5658 96.473 36.9209 96.8565 37.2003 97.3253C37.4796 97.794 37.6193 98.3693 37.6193 99.0511C37.6193 99.8371 37.4134 100.547 37.0014 101.182C36.5942 101.816 35.9976 102.321 35.2116 102.695C34.4304 103.069 33.4811 103.256 32.3636 103.256C31.322 103.256 30.42 103.088 29.6577 102.751C28.9001 102.415 28.3035 101.946 27.8679 101.345C27.437 100.744 27.1932 100.045 27.1364 99.25H28.9545C29.0019 99.7992 29.1866 100.254 29.5085 100.614C29.8352 100.969 30.2472 101.234 30.7443 101.409C31.2462 101.58 31.786 101.665 32.3636 101.665C33.036 101.665 33.6397 101.556 34.1747 101.338C34.7098 101.116 35.1335 100.808 35.446 100.415C35.7585 100.017 35.9148 99.553 35.9148 99.0227C35.9148 98.5398 35.7798 98.1468 35.5099 97.8438C35.2401 97.5407 34.8849 97.2945 34.4446 97.1051C34.0043 96.9157 33.5284 96.75 33.017 96.608L31.2273 96.0966C30.0909 95.7699 29.1913 95.3035 28.5284 94.6974C27.8655 94.0914 27.5341 93.2983 27.5341 92.3182C27.5341 91.5038 27.7543 90.7936 28.1946 90.1875C28.6397 89.5767 29.2363 89.1032 29.9844 88.767C30.7372 88.4261 31.5777 88.2557 32.5057 88.2557C33.4432 88.2557 34.2765 88.4238 35.0057 88.7599C35.7348 89.0914 36.3125 89.5459 36.7386 90.1236C37.1695 90.7012 37.3968 91.357 37.4205 92.0909H35.7159Z" fill="black"/>
<path d="M365.761 103V88.4545H374.483V90.017H367.523V94.9318H373.83V96.4943H367.523V103H365.761Z" fill="black"/>
<path d="M187.784 33.0909L190.398 37.5511L193.011 33.0909H194.943L191.42 38.5455L194.943 44H193.011L190.398 39.767L187.784 44H185.852L189.318 38.5455L185.852 33.0909H187.784Z" fill="white"/>
<path d="M204.216 36.983V35.4489H212.966V36.983H204.216ZM204.216 41.1875V39.6534H212.966V41.1875H204.216Z" fill="white"  style={{ display: showCircle ? "block" : "none" }}/>
<path d="M219.928 44.2557C219.237 44.2557 218.609 44.1255 218.046 43.8651C217.482 43.5999 217.035 43.2188 216.703 42.7216C216.372 42.2197 216.206 41.6136 216.206 40.9034C216.206 40.2784 216.329 39.7718 216.576 39.3835C216.822 38.9905 217.151 38.6828 217.563 38.4602C217.975 38.2377 218.429 38.072 218.926 37.9631C219.428 37.8494 219.933 37.7595 220.439 37.6932C221.102 37.608 221.64 37.544 222.051 37.5014C222.468 37.4541 222.771 37.3759 222.961 37.267C223.155 37.1581 223.252 36.9687 223.252 36.6989V36.642C223.252 35.9413 223.06 35.3968 222.676 35.0085C222.298 34.6203 221.722 34.4261 220.951 34.4261C220.15 34.4261 219.523 34.6013 219.069 34.9517C218.614 35.3021 218.294 35.6761 218.11 36.0739L216.519 35.5057C216.803 34.8428 217.182 34.3267 217.655 33.9574C218.133 33.5833 218.654 33.3229 219.218 33.1761C219.786 33.0246 220.345 32.9489 220.894 32.9489C221.244 32.9489 221.647 32.9915 222.101 33.0767C222.56 33.1572 223.003 33.3253 223.429 33.581C223.86 33.8366 224.218 34.2225 224.502 34.7386C224.786 35.2547 224.928 35.946 224.928 36.8125V44H223.252V42.5227H223.167C223.053 42.7595 222.864 43.0128 222.598 43.2827C222.333 43.5526 221.98 43.7822 221.54 43.9716C221.1 44.161 220.562 44.2557 219.928 44.2557ZM220.184 42.75C220.846 42.75 221.405 42.6198 221.86 42.3594C222.319 42.099 222.665 41.7628 222.897 41.3509C223.133 40.9389 223.252 40.5057 223.252 40.0511V38.517C223.181 38.6023 223.025 38.6804 222.783 38.7514C222.546 38.8177 222.272 38.8769 221.959 38.929C221.651 38.9763 221.351 39.0189 221.057 39.0568C220.768 39.09 220.534 39.1184 220.354 39.142C219.918 39.1989 219.511 39.2912 219.132 39.419C218.758 39.5421 218.455 39.7292 218.223 39.9801C217.996 40.2263 217.882 40.5625 217.882 40.9886C217.882 41.571 218.098 42.0114 218.529 42.3097C218.964 42.6032 219.516 42.75 220.184 42.75Z" fill="#26B334"/>
<path d="M192.614 167.091C192.33 167.091 192.076 167.067 191.854 167.02C191.631 166.977 191.477 166.935 191.392 166.892L191.818 165.415C192.225 165.519 192.585 165.557 192.898 165.528C193.21 165.5 193.487 165.36 193.729 165.109C193.975 164.863 194.2 164.463 194.403 163.909L194.716 163.057L190.682 152.091H192.5L195.511 160.784H195.625L198.636 152.091H200.455L195.824 164.591C195.616 165.154 195.357 165.621 195.05 165.99C194.742 166.364 194.384 166.641 193.977 166.821C193.575 167.001 193.12 167.091 192.614 167.091Z" fill="white"/>
<path d="M206.216 155.983V154.449H214.966V155.983H206.216ZM206.216 160.188V158.653H214.966V160.188H206.216ZM218.945 163V148.455H220.621V153.824H220.763C220.886 153.634 221.057 153.393 221.275 153.099C221.497 152.801 221.814 152.536 222.226 152.304C222.643 152.067 223.206 151.949 223.917 151.949C224.835 151.949 225.645 152.179 226.346 152.638C227.046 153.097 227.593 153.748 227.986 154.591C228.379 155.434 228.576 156.428 228.576 157.574C228.576 158.729 228.379 159.731 227.986 160.578C227.593 161.421 227.049 162.074 226.353 162.538C225.657 162.998 224.854 163.227 223.945 163.227C223.244 163.227 222.683 163.111 222.262 162.879C221.84 162.643 221.516 162.375 221.289 162.077C221.061 161.774 220.886 161.523 220.763 161.324H220.564V163H218.945ZM220.593 157.545C220.593 158.369 220.713 159.096 220.955 159.726C221.196 160.351 221.549 160.841 222.013 161.196C222.477 161.546 223.045 161.722 223.718 161.722C224.418 161.722 225.003 161.537 225.472 161.168C225.945 160.794 226.301 160.292 226.537 159.662C226.779 159.027 226.9 158.322 226.9 157.545C226.9 156.778 226.781 156.087 226.544 155.472C226.312 154.851 225.96 154.361 225.486 154.001C225.017 153.637 224.428 153.455 223.718 153.455C223.036 153.455 222.463 153.627 221.999 153.973C221.535 154.314 221.185 154.792 220.948 155.408C220.711 156.018 220.593 156.731 220.593 157.545Z" fill="white"/>
</g>
<defs>
<clipPath id="clip0_214_34">
<rect width="431" height="199" fill="white"/>
</clipPath>
</defs>
</svg>
