<svg width="368" height="199" viewBox="0 0 368 199" fill="none" xmlns="http://www.w3.org/2000/svg">
<g clip-path="url(#clip0_235_6)">
<rect width="368" height="199" fill="#252424"/>
<circle cx="40" cy="95" r="15.5" fill="#D9D9D9" stroke="#008000" stroke-width="5"/>
<circle cx="247" cy="95" r="15.5" fill="#D9D9D9" stroke="#008000" stroke-width="5"/>
<circle cx="167" cy="94" r="15.5" fill="#D9D9D9" stroke="#008000" stroke-width="5"/>
<path d="M162.253 102.014V100.735L167.054 95.4796C167.618 94.8641 168.082 94.329 168.446 93.8745C168.811 93.4152 169.081 92.9843 169.256 92.5819C169.436 92.1747 169.526 91.7485 169.526 91.3034C169.526 90.7921 169.403 90.3494 169.157 89.9753C168.915 89.6013 168.584 89.3124 168.162 89.1088C167.741 88.9052 167.267 88.8034 166.742 88.8034C166.183 88.8034 165.695 88.9194 165.279 89.1515C164.867 89.3787 164.547 89.6983 164.32 90.1103C164.097 90.5222 163.986 91.0051 163.986 91.5591H162.31C162.31 90.7069 162.507 89.9587 162.9 89.3148C163.293 88.6709 163.828 88.169 164.505 87.8091C165.186 87.4493 165.951 87.2694 166.799 87.2694C167.651 87.2694 168.406 87.4493 169.064 87.8091C169.722 88.169 170.239 88.6543 170.613 89.2651C170.987 89.8759 171.174 90.5553 171.174 91.3034C171.174 91.8385 171.077 92.3617 170.883 92.873C170.693 93.3797 170.362 93.9455 169.888 94.5705C169.419 95.1908 168.768 95.9483 167.935 96.8432L164.668 100.338V100.451H171.429V102.014H162.253Z" fill="black"/>
<path d="M174.625 54.5L174.307 55.4481L174.307 55.4481L174.625 54.5ZM173.647 76.2276C173.761 76.7679 174.292 77.1131 174.832 76.9987L183.637 75.1335C184.177 75.0191 184.523 74.4883 184.408 73.948C184.294 73.4077 183.763 73.0625 183.223 73.177L175.396 74.8349L173.738 67.0086C173.624 66.4683 173.093 66.123 172.553 66.2375C172.013 66.352 171.667 66.8827 171.782 67.423L173.647 76.2276ZM157.88 75.2541C152.044 72.0576 149.82 69.0594 149.495 66.6159C149.176 64.2216 150.632 61.8754 153.431 59.8224C156.201 57.7912 160.069 56.2273 163.967 55.4128C167.881 54.595 171.671 54.5643 174.307 55.4481L174.943 53.5519C171.834 52.5094 167.644 52.6012 163.558 53.4551C159.455 54.3125 155.303 55.9697 152.249 58.2096C149.224 60.4277 147.05 63.4025 147.513 66.8797C147.969 70.3077 150.937 73.7315 156.919 77.0082L157.88 75.2541ZM174.307 55.4481C176.857 56.3028 178.045 57.8625 178.502 59.7259C178.979 61.6723 178.674 64.0403 177.975 66.4235C177.282 68.7865 176.236 71.0512 175.355 72.7362C174.916 73.5758 174.521 74.2649 174.237 74.7426C174.095 74.9813 173.981 75.1668 173.903 75.2916C173.864 75.3539 173.834 75.401 173.815 75.432C173.805 75.4474 173.797 75.4588 173.793 75.4661C173.79 75.4697 173.789 75.4723 173.788 75.4738C173.787 75.4746 173.787 75.4751 173.787 75.4753C173.787 75.4754 173.787 75.4754 173.787 75.4754C173.787 75.4753 173.787 75.4752 174.625 76.0204C175.464 76.5656 175.464 76.5653 175.464 76.565C175.464 76.5647 175.464 76.5643 175.465 76.5639C175.465 76.5631 175.466 76.5619 175.467 76.5606C175.469 76.5578 175.471 76.554 175.474 76.5491C175.48 76.5393 175.489 76.5253 175.501 76.5073C175.524 76.4711 175.557 76.4185 175.6 76.3505C175.685 76.2146 175.806 76.0168 175.956 75.7648C176.256 75.2612 176.669 74.54 177.127 73.663C178.041 71.9149 179.15 69.5219 179.894 66.9863C180.631 64.4711 181.045 61.6997 180.444 59.2499C179.824 56.717 178.139 54.6235 174.943 53.5519L174.307 55.4481Z" fill="white"/>
<path d="M174.625 54.5L174.307 55.4481L174.307 55.4481L174.625 54.5ZM173.647 76.2276C173.761 76.7679 174.292 77.1131 174.832 76.9987L183.637 75.1335C184.177 75.0191 184.523 74.4883 184.408 73.948C184.294 73.4077 183.763 73.0625 183.223 73.177L175.396 74.8349L173.738 67.0086C173.624 66.4683 173.093 66.123 172.553 66.2375C172.013 66.352 171.667 66.8827 171.782 67.423L173.647 76.2276ZM157.88 75.2541C152.044 72.0576 149.82 69.0594 149.495 66.6159C149.176 64.2216 150.632 61.8754 153.431 59.8224C156.201 57.7912 160.069 56.2273 163.967 55.4128C167.881 54.595 171.671 54.5643 174.307 55.4481L174.943 53.5519C171.834 52.5094 167.644 52.6012 163.558 53.4551C159.455 54.3125 155.303 55.9697 152.249 58.2096C149.224 60.4277 147.05 63.4025 147.513 66.8797C147.969 70.3077 150.937 73.7315 156.919 77.0082L157.88 75.2541ZM174.307 55.4481C176.857 56.3028 178.045 57.8625 178.502 59.7259C178.979 61.6723 178.674 64.0403 177.975 66.4235C177.282 68.7865 176.236 71.0512 175.355 72.7362C174.916 73.5758 174.521 74.2649 174.237 74.7426C174.095 74.9813 173.981 75.1668 173.903 75.2916C173.864 75.3539 173.834 75.401 173.815 75.432C173.805 75.4474 173.797 75.4588 173.793 75.4661C173.79 75.4697 173.789 75.4723 173.788 75.4738C173.787 75.4746 173.787 75.4751 173.787 75.4753C173.787 75.4754 173.787 75.4754 173.787 75.4754C173.787 75.4753 173.787 75.4752 174.625 76.0204C175.464 76.5656 175.464 76.5653 175.464 76.565C175.464 76.5647 175.464 76.5643 175.465 76.5639C175.465 76.5631 175.466 76.5619 175.467 76.5606C175.469 76.5578 175.471 76.554 175.474 76.5491C175.48 76.5393 175.489 76.5253 175.501 76.5073C175.524 76.4711 175.557 76.4185 175.6 76.3505C175.685 76.2146 175.806 76.0168 175.956 75.7648C176.256 75.2612 176.669 74.54 177.127 73.663C178.041 71.9149 179.15 69.5219 179.894 66.9863C180.631 64.4711 181.045 61.6997 180.444 59.2499C179.824 56.717 178.139 54.6235 174.943 53.5519L174.307 55.4481Z" fill="white"/>
<path d="M159.817 135.691L160.087 134.728L160.087 134.728L159.817 135.691ZM159.688 113.942C159.546 113.408 158.998 113.09 158.465 113.232L149.766 115.543C149.233 115.685 148.915 116.233 149.057 116.766C149.199 117.3 149.746 117.618 150.28 117.476L158.012 115.422L160.066 123.153C160.208 123.687 160.756 124.005 161.289 123.863C161.823 123.721 162.141 123.174 161.999 122.64L159.688 113.942ZM175.484 114.111C181.475 117.006 183.849 119.887 184.298 122.311C184.738 124.686 183.404 127.103 180.713 129.296C178.05 131.466 174.267 133.224 170.416 134.236C166.549 135.252 162.764 135.476 160.087 134.728L159.548 136.654C162.707 137.537 166.886 137.232 170.924 136.171C174.978 135.105 179.04 133.239 181.976 130.846C184.884 128.477 186.904 125.395 186.265 121.946C185.634 118.546 182.496 115.278 176.354 112.31L175.484 114.111ZM160.087 134.728C157.497 134.004 156.231 132.507 155.68 130.669C155.104 128.75 155.289 126.369 155.865 123.953C156.437 121.558 157.366 119.243 158.16 117.515C158.556 116.655 158.915 115.946 159.174 115.455C159.304 115.209 159.408 115.018 159.48 114.889C159.515 114.825 159.543 114.777 159.561 114.745C159.57 114.729 159.577 114.717 159.581 114.71C159.583 114.706 159.585 114.703 159.586 114.702C159.586 114.701 159.586 114.7 159.586 114.7C159.587 114.7 159.587 114.7 159.587 114.7C159.587 114.7 159.586 114.7 158.721 114.198C157.856 113.697 157.856 113.697 157.856 113.697C157.856 113.697 157.856 113.698 157.855 113.698C157.855 113.699 157.854 113.7 157.853 113.702C157.852 113.705 157.85 113.709 157.847 113.714C157.841 113.724 157.833 113.738 157.822 113.757C157.801 113.794 157.77 113.848 157.731 113.918C157.654 114.058 157.542 114.262 157.405 114.521C157.132 115.04 156.756 115.781 156.343 116.68C155.519 118.473 154.533 120.919 153.92 123.489C153.311 126.039 153.04 128.827 153.764 131.243C154.513 133.741 156.302 135.746 159.548 136.654L160.087 134.728Z" fill="white"/>
<path d="M167.744 48.2557C167.053 48.2557 166.426 48.1255 165.862 47.8651C165.299 47.5999 164.851 47.2188 164.52 46.7216C164.188 46.2197 164.023 45.6136 164.023 44.9034C164.023 44.2784 164.146 43.7718 164.392 43.3835C164.638 42.9905 164.967 42.6828 165.379 42.4602C165.791 42.2377 166.246 42.072 166.743 41.9631C167.245 41.8494 167.749 41.7595 168.256 41.6932C168.919 41.608 169.456 41.544 169.868 41.5014C170.285 41.4541 170.588 41.3759 170.777 41.267C170.971 41.1581 171.068 40.9687 171.068 40.6989V40.642C171.068 39.9413 170.876 39.3968 170.493 39.0085C170.114 38.6203 169.539 38.4261 168.767 38.4261C167.967 38.4261 167.339 38.6013 166.885 38.9517C166.43 39.3021 166.111 39.6761 165.926 40.0739L164.335 39.5057C164.619 38.8428 164.998 38.3267 165.472 37.9574C165.95 37.5833 166.471 37.3229 167.034 37.1761C167.602 37.0246 168.161 36.9489 168.71 36.9489C169.061 36.9489 169.463 36.9915 169.918 37.0767C170.377 37.1572 170.82 37.3253 171.246 37.581C171.677 37.8366 172.034 38.2225 172.318 38.7386C172.602 39.2547 172.744 39.946 172.744 40.8125V48H171.068V46.5227H170.983C170.869 46.7595 170.68 47.0128 170.415 47.2827C170.15 47.5526 169.797 47.7822 169.357 47.9716C168.916 48.161 168.379 48.2557 167.744 48.2557ZM168 46.75C168.663 46.75 169.222 46.6198 169.676 46.3594C170.135 46.099 170.481 45.7628 170.713 45.3509C170.95 44.9389 171.068 44.5057 171.068 44.0511V42.517C170.997 42.6023 170.841 42.6804 170.599 42.7514C170.363 42.8177 170.088 42.8769 169.776 42.929C169.468 42.9763 169.167 43.0189 168.874 43.0568C168.585 43.09 168.35 43.1184 168.17 43.142C167.735 43.1989 167.328 43.2912 166.949 43.419C166.575 43.5421 166.272 43.7292 166.04 43.9801C165.813 44.2263 165.699 44.5625 165.699 44.9886C165.699 45.571 165.914 46.0114 166.345 46.3097C166.781 46.6032 167.332 46.75 168 46.75Z" fill="white"/>
<path d="M155.707 95.7393C156.097 95.3489 156.098 94.7157 155.707 94.3251L149.345 87.959C148.955 87.5684 148.322 87.5682 147.931 87.9586C147.54 88.349 147.54 88.9821 147.931 89.3728L153.586 95.0315L147.927 100.686C147.536 101.077 147.536 101.71 147.926 102.101C148.317 102.491 148.95 102.492 149.341 102.101L155.707 95.7393ZM57.9997 96L155 96.032L155 94.032L58.0003 94L57.9997 96Z" fill="white"/>
<path d="M231.707 94.7071C232.098 94.3166 232.098 93.6834 231.707 93.2929L225.343 86.9289C224.953 86.5384 224.319 86.5384 223.929 86.9289C223.538 87.3195 223.538 87.9526 223.929 88.3431L229.586 94L223.929 99.6569C223.538 100.047 223.538 100.681 223.929 101.071C224.319 101.462 224.953 101.462 225.343 101.071L231.707 94.7071ZM185 95L231 95L231 93L185 93L185 95Z" fill="white"/>
<path d="M41.7159 91.0909C41.6307 90.3712 41.285 89.8125 40.679 89.4148C40.0729 89.017 39.3295 88.8182 38.4489 88.8182C37.8049 88.8182 37.2415 88.9223 36.7585 89.1307C36.2803 89.339 35.9063 89.6255 35.6364 89.9901C35.3712 90.3546 35.2386 90.7689 35.2386 91.233C35.2386 91.6212 35.331 91.955 35.5156 92.2344C35.705 92.509 35.9465 92.7386 36.2401 92.9233C36.5336 93.1032 36.8414 93.2524 37.1634 93.3707C37.4853 93.4844 37.7812 93.5767 38.0511 93.6477L39.5284 94.0455C39.9072 94.1449 40.3286 94.2822 40.7926 94.4574C41.2614 94.6326 41.7088 94.8717 42.1349 95.1747C42.5658 95.473 42.9209 95.8565 43.2003 96.3253C43.4796 96.794 43.6193 97.3693 43.6193 98.0511C43.6193 98.8371 43.4134 99.5473 43.0014 100.182C42.5942 100.816 41.9976 101.321 41.2116 101.695C40.4304 102.069 39.4811 102.256 38.3636 102.256C37.322 102.256 36.42 102.088 35.6577 101.751C34.9001 101.415 34.3035 100.946 33.8679 100.345C33.437 99.7438 33.1932 99.0455 33.1364 98.25H34.9545C35.0019 98.7992 35.1866 99.2538 35.5085 99.6136C35.8352 99.9687 36.2472 100.234 36.7443 100.409C37.2462 100.58 37.786 100.665 38.3636 100.665C39.036 100.665 39.6397 100.556 40.1747 100.338C40.7098 100.116 41.1335 99.8078 41.446 99.4148C41.7585 99.017 41.9148 98.553 41.9148 98.0227C41.9148 97.5398 41.7798 97.1468 41.5099 96.8438C41.2401 96.5407 40.8849 96.2945 40.4446 96.1051C40.0043 95.9157 39.5284 95.75 39.017 95.608L37.2273 95.0966C36.0909 94.7699 35.1913 94.3035 34.5284 93.6974C33.8655 93.0914 33.5341 92.2983 33.5341 91.3182C33.5341 90.5038 33.7543 89.7936 34.1946 89.1875C34.6397 88.5767 35.2363 88.1032 35.9844 87.767C36.7372 87.4261 37.5777 87.2557 38.5057 87.2557C39.4432 87.2557 40.2765 87.4238 41.0057 87.7599C41.7348 88.0914 42.3125 88.5459 42.7386 89.1236C43.1695 89.7012 43.3968 90.357 43.4205 91.0909H41.7159Z" fill="black"/>
<path d="M242.761 102V87.4545H251.483V89.017H244.523V93.9318H250.83V95.4943H244.523V102H242.761Z" fill="black"/>
<path d="M149.761 156V141.455H151.438V146.824H151.58C151.703 146.634 151.873 146.393 152.091 146.099C152.313 145.801 152.631 145.536 153.043 145.304C153.459 145.067 154.023 144.949 154.733 144.949C155.652 144.949 156.461 145.179 157.162 145.638C157.863 146.097 158.41 146.748 158.803 147.591C159.196 148.434 159.392 149.428 159.392 150.574C159.392 151.729 159.196 152.731 158.803 153.578C158.41 154.421 157.865 155.074 157.169 155.538C156.473 155.998 155.67 156.227 154.761 156.227C154.061 156.227 153.5 156.111 153.078 155.879C152.657 155.643 152.332 155.375 152.105 155.077C151.878 154.774 151.703 154.523 151.58 154.324H151.381V156H149.761ZM151.409 150.545C151.409 151.369 151.53 152.096 151.771 152.726C152.013 153.351 152.366 153.841 152.83 154.196C153.294 154.546 153.862 154.722 154.534 154.722C155.235 154.722 155.82 154.537 156.288 154.168C156.762 153.794 157.117 153.292 157.354 152.662C157.595 152.027 157.716 151.322 157.716 150.545C157.716 149.778 157.598 149.087 157.361 148.472C157.129 147.851 156.776 147.361 156.303 147.001C155.834 146.637 155.244 146.455 154.534 146.455C153.852 146.455 153.279 146.627 152.815 146.973C152.351 147.314 152.001 147.792 151.764 148.408C151.527 149.018 151.409 149.731 151.409 150.545ZM162.183 156V141.455H163.859V146.824H164.001C164.125 146.634 164.295 146.393 164.513 146.099C164.735 145.801 165.053 145.536 165.464 145.304C165.881 145.067 166.445 144.949 167.155 144.949C168.073 144.949 168.883 145.179 169.584 145.638C170.285 146.097 170.831 146.748 171.224 147.591C171.617 148.434 171.814 149.428 171.814 150.574C171.814 151.729 171.617 152.731 171.224 153.578C170.831 154.421 170.287 155.074 169.591 155.538C168.895 155.998 168.092 156.227 167.183 156.227C166.482 156.227 165.921 156.111 165.5 155.879C165.079 155.643 164.754 155.375 164.527 155.077C164.3 154.774 164.125 154.523 164.001 154.324H163.803V156H162.183ZM163.831 150.545C163.831 151.369 163.952 152.096 164.193 152.726C164.435 153.351 164.787 153.841 165.251 154.196C165.715 154.546 166.284 154.722 166.956 154.722C167.657 154.722 168.241 154.537 168.71 154.168C169.184 153.794 169.539 153.292 169.776 152.662C170.017 152.027 170.138 151.322 170.138 150.545C170.138 149.778 170.019 149.087 169.783 148.472C169.551 147.851 169.198 147.361 168.724 147.001C168.256 146.637 167.666 146.455 166.956 146.455C166.274 146.455 165.701 146.627 165.237 146.973C164.773 147.314 164.423 147.792 164.186 148.408C163.949 149.018 163.831 149.731 163.831 150.545ZM177.162 149.636L177.276 146.511L174.634 148.188L173.952 146.994L176.736 145.545L173.952 144.097L174.634 142.903L177.276 144.58L177.162 141.455H178.526L178.412 144.58L181.054 142.903L181.736 144.097L178.952 145.545L181.736 146.994L181.054 148.188L178.412 146.511L178.526 149.636H177.162ZM187.588 156.256C186.897 156.256 186.269 156.125 185.706 155.865C185.143 155.6 184.695 155.219 184.364 154.722C184.032 154.22 183.866 153.614 183.866 152.903C183.866 152.278 183.99 151.772 184.236 151.384C184.482 150.991 184.811 150.683 185.223 150.46C185.635 150.238 186.089 150.072 186.587 149.963C187.089 149.849 187.593 149.759 188.099 149.693C188.762 149.608 189.3 149.544 189.712 149.501C190.128 149.454 190.431 149.376 190.621 149.267C190.815 149.158 190.912 148.969 190.912 148.699V148.642C190.912 147.941 190.72 147.397 190.337 147.009C189.958 146.62 189.383 146.426 188.611 146.426C187.811 146.426 187.183 146.601 186.729 146.952C186.274 147.302 185.955 147.676 185.77 148.074L184.179 147.506C184.463 146.843 184.842 146.327 185.315 145.957C185.794 145.583 186.314 145.323 186.878 145.176C187.446 145.025 188.005 144.949 188.554 144.949C188.904 144.949 189.307 144.991 189.761 145.077C190.221 145.157 190.663 145.325 191.089 145.581C191.52 145.837 191.878 146.223 192.162 146.739C192.446 147.255 192.588 147.946 192.588 148.812V156H190.912V154.523H190.827C190.713 154.759 190.524 155.013 190.259 155.283C189.993 155.553 189.641 155.782 189.2 155.972C188.76 156.161 188.223 156.256 187.588 156.256ZM187.844 154.75C188.507 154.75 189.065 154.62 189.52 154.359C189.979 154.099 190.325 153.763 190.557 153.351C190.794 152.939 190.912 152.506 190.912 152.051V150.517C190.841 150.602 190.685 150.68 190.443 150.751C190.206 150.818 189.932 150.877 189.619 150.929C189.312 150.976 189.011 151.019 188.717 151.057C188.429 151.09 188.194 151.118 188.014 151.142C187.579 151.199 187.171 151.291 186.793 151.419C186.419 151.542 186.116 151.729 185.884 151.98C185.656 152.226 185.543 152.562 185.543 152.989C185.543 153.571 185.758 154.011 186.189 154.31C186.625 154.603 187.176 154.75 187.844 154.75Z" fill="white"/>
<path d="M71.7841 79.0909L74.3977 83.5511L77.0114 79.0909H78.9432L75.4205 84.5455L78.9432 90H77.0114L74.3977 85.767L71.7841 90H69.8523L73.3182 84.5455L69.8523 79.0909H71.7841Z" fill="white"/>
<path d="M202.114 84.3182H203.591V85.1136H202.284C201.773 85.1136 201.33 85.1965 200.956 85.3622C200.582 85.5279 200.293 85.7505 200.089 86.0298C199.886 86.3045 199.784 86.6146 199.784 86.9602C199.784 87.4716 200.033 87.8835 200.53 88.196C201.027 88.5085 201.688 88.6648 202.511 88.6648C203.307 88.6648 203.92 88.5133 204.351 88.2102C204.782 87.9072 205.068 87.4432 205.21 86.8182H206.972C206.91 87.3295 206.761 87.7936 206.524 88.2102C206.287 88.6269 205.973 88.9844 205.58 89.2827C205.187 89.5762 204.725 89.8035 204.195 89.9645C203.664 90.1207 203.075 90.1989 202.426 90.1989C201.583 90.1989 200.828 90.0687 200.161 89.8082C199.498 89.5431 198.974 89.1738 198.591 88.7003C198.212 88.2268 198.023 87.6752 198.023 87.0455C198.023 86.7566 198.077 86.4536 198.186 86.1364C198.3 85.8191 198.501 85.5232 198.79 85.2486C199.083 84.974 199.498 84.7514 200.033 84.581C200.572 84.4058 201.266 84.3182 202.114 84.3182ZM203.591 84.7727H202.114C201.285 84.7727 200.613 84.6922 200.097 84.5312C199.585 84.3703 199.192 84.1619 198.918 83.9062C198.648 83.6458 198.463 83.3617 198.364 83.054C198.269 82.7462 198.222 82.4479 198.222 82.1591C198.222 81.4867 198.397 80.9115 198.747 80.4332C199.098 79.955 199.585 79.5881 200.21 79.3324C200.84 79.0767 201.569 78.9489 202.398 78.9489C203.226 78.9489 203.951 79.0743 204.571 79.3253C205.196 79.5762 205.696 79.9384 206.07 80.4119C206.448 80.8807 206.683 81.4441 206.773 82.1023H205.011C204.893 81.6098 204.611 81.2121 204.166 80.9091C203.721 80.6061 203.132 80.4545 202.398 80.4545C201.65 80.4545 201.051 80.6132 200.601 80.9304C200.151 81.2429 199.926 81.6525 199.926 82.1591C199.926 82.6136 200.12 82.9782 200.509 83.2528C200.902 83.5275 201.493 83.6648 202.284 83.6648H203.591V84.7727Z" fill="white"/>
<path d="M84.2159 81.983V80.4489H92.9659V81.983H84.2159ZM84.2159 86.1875V84.6534H92.9659V86.1875H84.2159Z" fill="white"/>
<path d="M96.945 89V74.4545H98.6211V79.8239H98.7631C98.8862 79.6345 99.0567 79.393 99.2745 79.0994C99.497 78.8011 99.8143 78.536 100.226 78.304C100.643 78.0672 101.206 77.9489 101.917 77.9489C102.835 77.9489 103.645 78.1785 104.346 78.6378C105.046 79.0971 105.593 79.7481 105.986 80.5909C106.379 81.4337 106.576 82.428 106.576 83.5739C106.576 84.7292 106.379 85.7306 105.986 86.5781C105.593 87.4209 105.049 88.0743 104.353 88.5384C103.657 88.9976 102.854 89.2273 101.945 89.2273C101.244 89.2273 100.683 89.1113 100.262 88.8793C99.8403 88.6425 99.516 88.375 99.2887 88.0767C99.0614 87.7737 98.8862 87.5227 98.7631 87.3239H98.5643V89H96.945ZM98.5927 83.5455C98.5927 84.3693 98.7134 85.0961 98.9549 85.7259C99.1964 86.3509 99.5491 86.8409 100.013 87.196C100.477 87.5464 101.045 87.7216 101.718 87.7216C102.418 87.7216 103.003 87.5369 103.472 87.1676C103.945 86.7936 104.301 86.2917 104.537 85.6619C104.779 85.0275 104.9 84.322 104.9 83.5455C104.9 82.7784 104.781 82.0871 104.544 81.4716C104.312 80.8513 103.96 80.3613 103.486 80.0014C103.017 79.6368 102.428 79.4545 101.718 79.4545C101.036 79.4545 100.463 79.6274 99.9989 79.973C99.5349 80.3139 99.1845 80.7921 98.9478 81.4077C98.7111 82.0185 98.5927 82.7311 98.5927 83.5455ZM111.924 82.6364L112.037 79.5114L109.395 81.1875L108.713 79.9943L111.498 78.5455L108.713 77.0966L109.395 75.9034L112.037 77.5795L111.924 74.4545H113.287L113.174 77.5795L115.816 75.9034L116.498 77.0966L113.713 78.5455L116.498 79.9943L115.816 81.1875L113.174 79.5114L113.287 82.6364H111.924ZM122.35 89.2557C121.658 89.2557 121.031 89.1255 120.468 88.8651C119.904 88.5999 119.457 88.2188 119.125 87.7216C118.794 87.2197 118.628 86.6136 118.628 85.9034C118.628 85.2784 118.751 84.7718 118.998 84.3835C119.244 83.9905 119.573 83.6828 119.985 83.4602C120.397 83.2377 120.851 83.072 121.348 82.9631C121.85 82.8494 122.355 82.7595 122.861 82.6932C123.524 82.608 124.061 82.544 124.473 82.5014C124.89 82.4541 125.193 82.3759 125.382 82.267C125.577 82.1581 125.674 81.9687 125.674 81.6989V81.642C125.674 80.9413 125.482 80.3968 125.098 80.0085C124.72 79.6203 124.144 79.4261 123.373 79.4261C122.572 79.4261 121.945 79.6013 121.49 79.9517C121.036 80.3021 120.716 80.6761 120.532 81.0739L118.941 80.5057C119.225 79.8428 119.604 79.3267 120.077 78.9574C120.555 78.5833 121.076 78.3229 121.64 78.1761C122.208 78.0246 122.766 77.9489 123.316 77.9489C123.666 77.9489 124.069 77.9915 124.523 78.0767C124.982 78.1572 125.425 78.3253 125.851 78.581C126.282 78.8366 126.64 79.2225 126.924 79.7386C127.208 80.2547 127.35 80.946 127.35 81.8125V89H125.674V87.5227H125.588C125.475 87.7595 125.285 88.0128 125.02 88.2827C124.755 88.5526 124.402 88.7822 123.962 88.9716C123.522 89.161 122.984 89.2557 122.35 89.2557ZM122.605 87.75C123.268 87.75 123.827 87.6198 124.282 87.3594C124.741 87.099 125.087 86.7628 125.319 86.3509C125.555 85.9389 125.674 85.5057 125.674 85.0511V83.517C125.603 83.6023 125.446 83.6804 125.205 83.7514C124.968 83.8177 124.694 83.8769 124.381 83.929C124.073 83.9763 123.773 84.0189 123.479 84.0568C123.19 84.09 122.956 84.1184 122.776 84.142C122.34 84.1989 121.933 84.2912 121.554 84.419C121.18 84.5421 120.877 84.7292 120.645 84.9801C120.418 85.2263 120.304 85.5625 120.304 85.9886C120.304 86.571 120.52 87.0114 120.951 87.3097C121.386 87.6032 121.938 87.75 122.605 87.75Z" fill="#26B334"/>
</g>
<defs>
<clipPath id="clip0_235_6">
<rect width="368" height="199" fill="white"/>
</clipPath>
</defs>
</svg>
