<svg width="233" height="162" viewBox="0 0 233 162" fill="none" xmlns="http://www.w3.org/2000/svg">
<g clip-path="url(#clip0_213_14)">
<rect width="233" height="162" fill="#808080"/>
<circle cx="24.1719" cy="75" r="15.5" fill="#D9D9D9" stroke="#008000" stroke-width="5"/>
<circle cx="200" cy="75" r="15.5" fill="#D9D9D9" stroke="#008000" stroke-width="5"/>
<path d="M195.253 83.0137V81.7353L200.054 76.4796C200.618 75.8641 201.082 75.329 201.446 74.8745C201.811 74.4152 202.081 73.9843 202.256 73.5819C202.436 73.1747 202.526 72.7485 202.526 72.3034C202.526 71.7921 202.403 71.3494 202.157 70.9753C201.915 70.6013 201.584 70.3124 201.162 70.1088C200.741 69.9052 200.267 69.8034 199.742 69.8034C199.183 69.8034 198.695 69.9194 198.279 70.1515C197.867 70.3787 197.547 70.6983 197.32 71.1103C197.097 71.5222 196.986 72.0051 196.986 72.5591H195.31C195.31 71.7069 195.507 70.9587 195.9 70.3148C196.293 69.6709 196.828 69.169 197.505 68.8091C198.186 68.4493 198.951 68.2694 199.799 68.2694C200.651 68.2694 201.406 68.4493 202.064 68.8091C202.722 69.169 203.239 69.6543 203.613 70.2651C203.987 70.8759 204.174 71.5553 204.174 72.3034C204.174 72.8385 204.077 73.3617 203.883 73.873C203.693 74.3797 203.362 74.9455 202.888 75.5705C202.419 76.1908 201.768 76.9483 200.935 77.8432L197.668 81.3375V81.4512H204.429V83.0137H195.253Z" fill="black"/>
<path d="M24.7912 68.4545V83H23.0298V70.3011H22.9446L19.3935 72.6591V70.8693L23.0298 68.4545H24.7912Z" fill="black"/>
<path d="M185.104 65.439C185.653 65.3818 186.052 64.89 185.995 64.3407L185.061 55.3893C185.004 54.8399 184.512 54.4411 183.963 54.4983C183.414 54.5556 183.015 55.0473 183.072 55.5966L183.902 63.5535L175.945 64.3831C175.396 64.4404 174.997 64.9321 175.054 65.4814C175.111 66.0307 175.603 66.4296 176.152 66.3723L185.104 65.439ZM40.7619 65.6513C65.7637 44.4331 84.2125 30.3438 105.061 28.4486C125.859 26.5579 149.333 36.8001 184.37 65.221L185.63 63.6678C150.535 35.1997 126.516 24.49 104.88 26.4568C83.2931 28.4191 64.3655 42.9965 39.4678 64.1264L40.7619 65.6513Z" fill="white"/>
<path d="M187.002 87.0068C187.55 87.0713 187.943 87.5682 187.878 88.1167L186.828 97.0552C186.764 97.6037 186.267 97.9961 185.718 97.9317C185.17 97.8673 184.777 97.3704 184.842 96.8218L185.775 88.8765L177.83 87.943C177.281 87.8786 176.889 87.3817 176.953 86.8332C177.018 86.2847 177.515 85.8922 178.063 85.9567L187.002 87.0068ZM42.6274 87.6658C67.7523 107.911 86.2897 121.351 107.16 123.048C127.985 124.742 151.404 114.746 186.265 87.2152L187.505 88.7848C152.577 116.368 128.63 126.801 106.998 125.042C85.4116 123.286 66.4009 109.391 41.3725 89.2231L42.6274 87.6658Z" fill="white"/>
<path d="M207.625 35.5L207.307 36.4481L207.625 35.5ZM206.647 57.2276C206.761 57.7679 207.292 58.1131 207.832 57.9987L216.637 56.1335C217.177 56.0191 217.523 55.4883 217.408 54.948C217.294 54.4077 216.763 54.0625 216.223 54.177L208.396 55.8349L206.738 48.0086C206.624 47.4683 206.093 47.123 205.553 47.2375C205.013 47.352 204.667 47.8827 204.782 48.423L206.647 57.2276ZM190.88 56.2541C185.044 53.0576 182.82 50.0594 182.495 47.6159C182.176 45.2216 183.632 42.8754 186.431 40.8224C189.201 38.7912 193.069 37.2273 196.967 36.4128C200.881 35.595 204.671 35.5643 207.307 36.4481L207.943 34.5519C204.834 33.5094 200.644 33.6012 196.558 34.4551C192.455 35.3125 188.303 36.9697 185.249 39.2096C182.224 41.4277 180.05 44.4025 180.513 47.8797C180.969 51.3077 183.937 54.7315 189.919 58.0082L190.88 56.2541ZM207.307 36.4481C209.857 37.3028 211.045 38.8625 211.502 40.7259C211.979 42.6723 211.674 45.0403 210.975 47.4235C210.282 49.7865 209.236 52.0512 208.355 53.7362C207.916 54.5758 207.521 55.2649 207.237 55.7426C207.095 55.9813 206.981 56.1668 206.903 56.2916C206.864 56.3539 206.834 56.401 206.815 56.432C206.805 56.4474 206.797 56.4588 206.793 56.4661C206.79 56.4697 206.789 56.4723 206.788 56.4738C206.787 56.4746 206.787 56.4751 206.787 56.4753C206.787 56.4754 206.787 56.4754 206.787 56.4754C206.787 56.4753 206.787 56.4752 207.625 57.0204C208.464 57.5656 208.464 57.5653 208.464 57.565C208.464 57.5647 208.464 57.5643 208.465 57.5639C208.465 57.5631 208.466 57.5619 208.467 57.5606C208.469 57.5578 208.471 57.554 208.474 57.5491C208.48 57.5393 208.489 57.5253 208.501 57.5073C208.524 57.4711 208.557 57.4185 208.6 57.3505C208.685 57.2146 208.806 57.0168 208.956 56.7648C209.256 56.2612 209.669 55.54 210.127 54.663C211.041 52.9149 212.15 50.5219 212.894 47.9863C213.631 45.4711 214.045 42.6997 213.444 40.2499C212.824 37.717 211.139 35.6235 207.943 34.5519L207.307 36.4481Z" fill="white"/>
<path d="M34.4558 34.3025L34.138 35.2506L34.4558 34.3025ZM33.4775 56.0301C33.592 56.5704 34.1227 56.9156 34.663 56.8012L43.4676 54.936C44.0079 54.8216 44.3531 54.2908 44.2387 53.7505C44.1242 53.2102 43.5935 52.865 43.0532 52.9795L35.2268 54.6374L33.5689 46.811C33.4545 46.2707 32.9237 45.9255 32.3834 46.04C31.8431 46.1544 31.4979 46.6852 31.6123 47.2255L33.4775 56.0301ZM17.7103 55.0565C11.8746 51.8601 9.6508 48.8619 9.3256 46.4184C9.00695 44.0241 10.4622 41.6779 13.2618 39.6249C16.0319 37.5937 19.8999 36.0298 23.7974 35.2153C27.7112 34.3975 31.5018 34.3668 34.138 35.2506L34.7737 33.3544C31.6644 32.3119 27.4747 32.4037 23.3883 33.2576C19.2856 34.115 15.1337 35.7722 12.0791 38.0121C9.05421 40.2302 6.8803 43.205 7.34308 46.6822C7.79929 50.1102 10.7675 53.534 16.7496 56.8106L17.7103 55.0565ZM34.138 35.2506C36.6871 36.1053 37.8757 37.665 38.3323 39.5284C38.8092 41.4748 38.5041 43.8428 37.8053 46.226C37.1124 48.589 36.0668 50.8537 35.1856 52.5387C34.7465 53.3783 34.3516 54.0674 34.0676 54.5451C33.9256 54.7838 33.8116 54.9693 33.7337 55.094C33.6948 55.1564 33.665 55.2035 33.6452 55.2344C33.6354 55.2499 33.628 55.2613 33.6234 55.2686C33.621 55.2722 33.6194 55.2748 33.6184 55.2763C33.6179 55.2771 33.6176 55.2776 33.6174 55.2778C33.6173 55.2779 33.6174 55.2779 33.6173 55.2779C33.6174 55.2778 33.6175 55.2777 34.4558 55.8229C35.2941 56.3681 35.2943 56.3678 35.2945 56.3674C35.2946 56.3672 35.2949 56.3668 35.2952 56.3664C35.2957 56.3655 35.2965 56.3644 35.2974 56.363C35.2992 56.3603 35.3016 56.3565 35.3048 56.3516C35.3111 56.3418 35.32 56.3278 35.3316 56.3097C35.3546 56.2736 35.3879 56.221 35.4303 56.153C35.5152 56.0171 35.6368 55.8193 35.7866 55.5673C36.0861 55.0637 36.4992 54.3425 36.9578 53.4655C37.8721 51.7174 38.981 49.3244 39.7245 46.7888C40.462 44.2735 40.8751 41.5022 40.2748 39.0524C39.6541 36.5195 37.97 34.426 34.7737 33.3544L34.138 35.2506Z" fill="white"/>
<path d="M107.744 21.2557C107.053 21.2557 106.426 21.1255 105.862 20.8651C105.299 20.5999 104.851 20.2188 104.52 19.7216C104.188 19.2197 104.023 18.6136 104.023 17.9034C104.023 17.2784 104.146 16.7718 104.392 16.3835C104.638 15.9905 104.967 15.6828 105.379 15.4602C105.791 15.2377 106.246 15.072 106.743 14.9631C107.245 14.8494 107.749 14.7595 108.256 14.6932C108.919 14.608 109.456 14.544 109.868 14.5014C110.285 14.4541 110.588 14.3759 110.777 14.267C110.971 14.1581 111.068 13.9687 111.068 13.6989V13.642C111.068 12.9413 110.876 12.3968 110.493 12.0085C110.114 11.6203 109.539 11.4261 108.767 11.4261C107.967 11.4261 107.339 11.6013 106.885 11.9517C106.43 12.3021 106.111 12.6761 105.926 13.0739L104.335 12.5057C104.619 11.8428 104.998 11.3267 105.472 10.9574C105.95 10.5833 106.471 10.3229 107.034 10.1761C107.602 10.0246 108.161 9.94886 108.71 9.94886C109.061 9.94886 109.463 9.99148 109.918 10.0767C110.377 10.1572 110.82 10.3253 111.246 10.581C111.677 10.8366 112.034 11.2225 112.318 11.7386C112.602 12.2547 112.744 12.946 112.744 13.8125V21H111.068V19.5227H110.983C110.869 19.7595 110.68 20.0128 110.415 20.2827C110.15 20.5526 109.797 20.7822 109.357 20.9716C108.916 21.161 108.379 21.2557 107.744 21.2557ZM108 19.75C108.663 19.75 109.222 19.6198 109.676 19.3594C110.135 19.099 110.481 18.7628 110.713 18.3509C110.95 17.9389 111.068 17.5057 111.068 17.0511V15.517C110.997 15.6023 110.841 15.6804 110.599 15.7514C110.363 15.8177 110.088 15.8769 109.776 15.929C109.468 15.9763 109.167 16.0189 108.874 16.0568C108.585 16.09 108.35 16.1184 108.17 16.142C107.735 16.1989 107.328 16.2912 106.949 16.419C106.575 16.5421 106.272 16.7292 106.04 16.9801C105.813 17.2263 105.699 17.5625 105.699 17.9886C105.699 18.571 105.914 19.0114 106.345 19.3097C106.781 19.6032 107.332 19.75 108 19.75Z" fill="white"/>
<path d="M105.761 143V128.455H107.438V133.824H107.58C107.703 133.634 107.873 133.393 108.091 133.099C108.313 132.801 108.631 132.536 109.043 132.304C109.459 132.067 110.023 131.949 110.733 131.949C111.652 131.949 112.461 132.179 113.162 132.638C113.863 133.097 114.41 133.748 114.803 134.591C115.196 135.434 115.392 136.428 115.392 137.574C115.392 138.729 115.196 139.731 114.803 140.578C114.41 141.421 113.865 142.074 113.169 142.538C112.473 142.998 111.67 143.227 110.761 143.227C110.061 143.227 109.5 143.111 109.078 142.879C108.657 142.643 108.332 142.375 108.105 142.077C107.878 141.774 107.703 141.523 107.58 141.324H107.381V143H105.761ZM107.409 137.545C107.409 138.369 107.53 139.096 107.771 139.726C108.013 140.351 108.366 140.841 108.83 141.196C109.294 141.546 109.862 141.722 110.534 141.722C111.235 141.722 111.82 141.537 112.288 141.168C112.762 140.794 113.117 140.292 113.354 139.662C113.595 139.027 113.716 138.322 113.716 137.545C113.716 136.778 113.598 136.087 113.361 135.472C113.129 134.851 112.776 134.361 112.303 134.001C111.834 133.637 111.244 133.455 110.534 133.455C109.852 133.455 109.279 133.627 108.815 133.973C108.351 134.314 108.001 134.792 107.764 135.408C107.527 136.018 107.409 136.731 107.409 137.545Z" fill="white"/>
<path d="M200.744 29.2557C200.053 29.2557 199.426 29.1255 198.862 28.8651C198.299 28.5999 197.851 28.2188 197.52 27.7216C197.188 27.2197 197.023 26.6136 197.023 25.9034C197.023 25.2784 197.146 24.7718 197.392 24.3835C197.638 23.9905 197.967 23.6828 198.379 23.4602C198.791 23.2377 199.246 23.072 199.743 22.9631C200.245 22.8494 200.749 22.7595 201.256 22.6932C201.919 22.608 202.456 22.544 202.868 22.5014C203.285 22.4541 203.588 22.3759 203.777 22.267C203.971 22.1581 204.068 21.9687 204.068 21.6989V21.642C204.068 20.9413 203.876 20.3968 203.493 20.0085C203.114 19.6203 202.539 19.4261 201.767 19.4261C200.967 19.4261 200.339 19.6013 199.885 19.9517C199.43 20.3021 199.111 20.6761 198.926 21.0739L197.335 20.5057C197.619 19.8428 197.998 19.3267 198.472 18.9574C198.95 18.5833 199.471 18.3229 200.034 18.1761C200.602 18.0246 201.161 17.9489 201.71 17.9489C202.061 17.9489 202.463 17.9915 202.918 18.0767C203.377 18.1572 203.82 18.3253 204.246 18.581C204.677 18.8366 205.034 19.2225 205.318 19.7386C205.602 20.2547 205.744 20.946 205.744 21.8125V29H204.068V27.5227H203.983C203.869 27.7595 203.68 28.0128 203.415 28.2827C203.15 28.5526 202.797 28.7822 202.357 28.9716C201.916 29.161 201.379 29.2557 200.744 29.2557ZM201 27.75C201.663 27.75 202.222 27.6198 202.676 27.3594C203.135 27.099 203.481 26.7628 203.713 26.3509C203.95 25.9389 204.068 25.5057 204.068 25.0511V23.517C203.997 23.6023 203.841 23.6804 203.599 23.7514C203.363 23.8177 203.088 23.8769 202.776 23.929C202.468 23.9763 202.167 24.0189 201.874 24.0568C201.585 24.09 201.35 24.1184 201.17 24.142C200.735 24.1989 200.328 24.2912 199.949 24.419C199.575 24.5421 199.272 24.7292 199.04 24.9801C198.813 25.2263 198.699 25.5625 198.699 25.9886C198.699 26.571 198.914 27.0114 199.345 27.3097C199.781 27.6032 200.332 27.75 201 27.75Z" fill="white"/>
<path d="M21.7614 29V14.4545H23.4375V19.8239H23.5795C23.7027 19.6345 23.8731 19.393 24.0909 19.0994C24.3134 18.8011 24.6307 18.536 25.0426 18.304C25.4593 18.0672 26.0227 17.9489 26.733 17.9489C27.6515 17.9489 28.4612 18.1785 29.1619 18.6378C29.8627 19.0971 30.4096 19.7481 30.8026 20.5909C31.1955 21.4337 31.392 22.428 31.392 23.5739C31.392 24.7292 31.1955 25.7306 30.8026 26.5781C30.4096 27.4209 29.8651 28.0743 29.169 28.5384C28.473 28.9976 27.6705 29.2273 26.7614 29.2273C26.0606 29.2273 25.4995 29.1113 25.0781 28.8793C24.6567 28.6425 24.3324 28.375 24.1051 28.0767C23.8778 27.7737 23.7027 27.5227 23.5795 27.3239H23.3807V29H21.7614ZM23.4091 23.5455C23.4091 24.3693 23.5298 25.0961 23.7713 25.7259C24.0128 26.3509 24.3655 26.8409 24.8295 27.196C25.2936 27.5464 25.8617 27.7216 26.5341 27.7216C27.2348 27.7216 27.8196 27.5369 28.2884 27.1676C28.7618 26.7936 29.117 26.2917 29.3537 25.6619C29.5952 25.0275 29.7159 24.322 29.7159 23.5455C29.7159 22.7784 29.5975 22.0871 29.3608 21.4716C29.1288 20.8513 28.776 20.3613 28.3026 20.0014C27.8338 19.6368 27.2443 19.4545 26.5341 19.4545C25.8523 19.4545 25.2794 19.6274 24.8153 19.973C24.3513 20.3139 24.0009 20.7921 23.7642 21.4077C23.5275 22.0185 23.4091 22.7311 23.4091 23.5455Z" fill="white"/>
</g>
<defs>
<clipPath id="clip0_213_14">
<rect width="233" height="162" fill="white"/>
</clipPath>
</defs>
</svg>
