<svg width="708" height="350" viewBox="0 0 708 350" fill="none" xmlns="http://www.w3.org/2000/svg">
<g clip-path="url(#clip0_1_2)">
<rect width="708" height="350" fill="#252424"/>
<circle cx="86.1721" cy="188" r="15.5" fill="#D9D9D9" stroke="#008000" stroke-width="5"/>
<circle cx="622.172" cy="198" r="15.5" fill="#D9D9D9" stroke="#008000" stroke-width="5"/>
<circle cx="270.172" cy="116" r="15" fill="#D9D9D9" stroke="#008000" stroke-width="6"/>
<circle cx="270.172" cy="254" r="15.5" fill="#D9D9D9" stroke="#008000" stroke-width="5"/>
<circle cx="451.172" cy="254" r="15.5" fill="#D9D9D9" stroke="#008000" stroke-width="5"/>
<circle cx="451.172" cy="116" r="15.5" fill="#D9D9D9" stroke="#008000" stroke-width="5"/>
<path d="M433.884 116.702C434.272 116.309 434.268 115.676 433.874 115.288L427.466 108.968C427.073 108.581 426.44 108.585 426.052 108.978C425.664 109.371 425.669 110.005 426.062 110.392L431.758 116.01L426.14 121.706C425.753 122.099 425.757 122.732 426.15 123.12C426.544 123.508 427.177 123.503 427.565 123.11L433.884 116.702ZM289.179 118L433.179 117L433.165 115L289.165 116L289.179 118Z" fill="white"/>
<path d="M432.884 253.702C433.272 253.309 433.268 252.676 432.874 252.288L426.466 245.968C426.073 245.581 425.44 245.585 425.052 245.978C424.664 246.371 424.669 247.005 425.062 247.392L430.758 253.01L425.14 258.706C424.753 259.099 424.757 259.732 425.15 260.12C425.544 260.508 426.177 260.503 426.565 260.11L432.884 253.702ZM288.179 255L432.179 254L432.165 252L288.165 253L288.179 255Z" fill="white"/>
<path d="M191.538 120.393L191.538 119.393L191.196 119.393L190.926 119.602L191.538 120.393ZM252.299 121.111C252.69 120.721 252.69 120.088 252.299 119.697L245.937 113.332C245.546 112.941 244.913 112.941 244.522 113.332C244.132 113.722 244.132 114.355 244.522 114.746L250.178 120.404L244.52 126.06C244.129 126.45 244.129 127.083 244.52 127.474C244.91 127.864 245.543 127.865 245.934 127.474L252.299 121.111ZM104.784 188.791L192.15 121.184L190.926 119.602L103.56 187.209L104.784 188.791ZM191.538 121.393L251.592 121.404L251.592 119.404L191.538 119.393L191.538 121.393Z" fill="white"/>
<path d="M194.672 259.328L194.096 260.146L194.355 260.328L194.672 260.328L194.672 259.328ZM251.909 260.036C252.3 259.645 252.3 259.012 251.909 258.621L245.545 252.257C245.155 251.867 244.521 251.867 244.131 252.257C243.74 252.648 243.74 253.281 244.131 253.672L249.788 259.328L244.131 264.985C243.74 265.376 243.74 266.009 244.131 266.4C244.521 266.79 245.155 266.79 245.545 266.4L251.909 260.036ZM102.096 195.317L194.096 260.146L195.248 258.511L103.248 193.683L102.096 195.317ZM194.672 260.328L251.202 260.328L251.202 258.328L194.672 258.328L194.672 260.328Z" fill="#F5F5F5"/>
<path d="M529.672 116L530.398 115.312L530.102 115L529.672 115L529.672 116ZM601.645 192.999C602.197 193.014 602.657 192.579 602.672 192.027L602.915 183.03C602.93 182.478 602.494 182.018 601.942 182.003C601.39 181.988 600.931 182.424 600.916 182.976L600.7 190.973L592.702 190.757C592.15 190.742 591.691 191.177 591.676 191.73C591.661 192.282 592.096 192.741 592.648 192.756L601.645 192.999ZM470.172 117L529.672 117L529.672 115L470.172 115L470.172 117ZM528.946 116.688L600.946 192.687L602.398 191.312L530.398 115.312L528.946 116.688Z" fill="#C72C2C"/>
<path d="M539.672 254V255H540.06L540.347 254.738L539.672 254ZM604.171 196.045C604.196 195.494 603.769 195.026 603.217 195.001L594.227 194.594C593.675 194.569 593.207 194.996 593.182 195.548C593.157 196.1 593.584 196.567 594.136 196.592L602.128 196.954L601.766 204.946C601.741 205.497 602.168 205.965 602.72 205.99C603.272 206.015 603.739 205.588 603.764 205.036L604.171 196.045ZM469.172 255H539.672V253H469.172V255ZM540.347 254.738L603.847 196.738L602.498 195.262L538.998 253.262L540.347 254.738Z" fill="#C72C2C"/>
<path d="M272.791 109.455V124H271.03V111.301H270.945L267.394 113.659V111.869L271.03 109.455H272.791Z" fill="black"/>
<path d="M446.678 123V121.722L451.479 116.466C452.042 115.85 452.506 115.315 452.871 114.861C453.236 114.402 453.505 113.971 453.681 113.568C453.861 113.161 453.951 112.735 453.951 112.29C453.951 111.778 453.827 111.336 453.581 110.962C453.34 110.588 453.008 110.299 452.587 110.095C452.165 109.892 451.692 109.79 451.166 109.79C450.608 109.79 450.12 109.906 449.703 110.138C449.291 110.365 448.972 110.685 448.745 111.097C448.522 111.509 448.411 111.991 448.411 112.545H446.735C446.735 111.693 446.931 110.945 447.324 110.301C447.717 109.657 448.252 109.155 448.929 108.795C449.611 108.436 450.376 108.256 451.223 108.256C452.076 108.256 452.831 108.436 453.489 108.795C454.147 109.155 454.663 109.641 455.037 110.251C455.411 110.862 455.598 111.542 455.598 112.29C455.598 112.825 455.501 113.348 455.307 113.859C455.118 114.366 454.786 114.932 454.313 115.557C453.844 116.177 453.193 116.935 452.36 117.83L449.093 121.324V121.438H455.854V123H446.678Z" fill="black"/>
<path d="M269.593 261.199C268.655 261.199 267.819 261.038 267.085 260.716C266.356 260.394 265.776 259.946 265.345 259.374C264.919 258.796 264.687 258.126 264.649 257.364H266.439C266.477 257.832 266.638 258.237 266.922 258.578C267.206 258.914 267.578 259.175 268.037 259.359C268.496 259.544 269.005 259.636 269.564 259.636C270.189 259.636 270.743 259.527 271.226 259.31C271.709 259.092 272.088 258.789 272.362 258.401C272.637 258.012 272.774 257.562 272.774 257.051C272.774 256.516 272.642 256.045 272.377 255.638C272.112 255.226 271.723 254.904 271.212 254.672C270.701 254.44 270.076 254.324 269.337 254.324H268.172V252.761H269.337C269.915 252.761 270.421 252.657 270.857 252.449C271.297 252.241 271.64 251.947 271.887 251.568C272.138 251.189 272.263 250.744 272.263 250.233C272.263 249.741 272.154 249.312 271.936 248.947C271.719 248.583 271.411 248.299 271.013 248.095C270.62 247.892 270.156 247.79 269.621 247.79C269.119 247.79 268.646 247.882 268.201 248.067C267.76 248.247 267.4 248.509 267.121 248.855C266.842 249.196 266.69 249.608 266.666 250.091H264.962C264.99 249.329 265.22 248.661 265.651 248.088C266.082 247.51 266.645 247.061 267.341 246.739C268.042 246.417 268.811 246.256 269.649 246.256C270.549 246.256 271.321 246.438 271.965 246.803C272.609 247.162 273.103 247.638 273.449 248.23C273.795 248.822 273.968 249.461 273.968 250.148C273.968 250.967 273.752 251.665 273.321 252.243C272.895 252.821 272.315 253.221 271.581 253.443V253.557C272.5 253.708 273.217 254.099 273.733 254.729C274.249 255.354 274.507 256.128 274.507 257.051C274.507 257.842 274.292 258.552 273.861 259.182C273.435 259.807 272.853 260.299 272.114 260.659C271.375 261.019 270.535 261.199 269.593 261.199Z" fill="black"/>
<path d="M445.337 258.017V256.568L451.729 246.455H452.78V248.699H452.07L447.24 256.341V256.455H455.848V258.017H445.337ZM452.183 261V257.577V256.902V246.455H453.86V261H452.183Z" fill="black"/>
<path d="M622.223 207.199C621.39 207.199 620.639 207.033 619.972 206.702C619.304 206.37 618.769 205.916 618.367 205.338C617.964 204.76 617.744 204.102 617.706 203.364H619.411C619.477 204.022 619.775 204.566 620.306 204.997C620.841 205.423 621.48 205.636 622.223 205.636C622.82 205.636 623.35 205.497 623.814 205.217C624.283 204.938 624.65 204.554 624.915 204.067C625.185 203.574 625.32 203.018 625.32 202.398C625.32 201.763 625.18 201.197 624.901 200.7C624.626 200.198 624.247 199.803 623.764 199.514C623.281 199.225 622.73 199.079 622.11 199.074C621.665 199.069 621.208 199.138 620.739 199.28C620.27 199.417 619.884 199.595 619.581 199.812L617.933 199.614L618.814 192.455H626.371V194.017H620.291L619.78 198.307H619.865C620.164 198.07 620.538 197.874 620.987 197.717C621.437 197.561 621.906 197.483 622.394 197.483C623.284 197.483 624.077 197.696 624.773 198.122C625.474 198.544 626.023 199.121 626.421 199.855C626.823 200.589 627.024 201.427 627.024 202.369C627.024 203.297 626.816 204.126 626.399 204.855C625.987 205.58 625.419 206.152 624.695 206.574C623.97 206.991 623.147 207.199 622.223 207.199Z" fill="black"/>
<path d="M86.4221 196.199C85.352 196.199 84.4406 195.908 83.6877 195.325C82.9349 194.738 82.3596 193.888 81.9619 192.776C81.5642 191.658 81.3653 190.309 81.3653 188.727C81.3653 187.155 81.5642 185.813 81.9619 184.7C82.3644 183.583 82.942 182.731 83.6948 182.143C84.4524 181.552 85.3615 181.256 86.4221 181.256C87.4827 181.256 88.3894 181.552 89.1423 182.143C89.8999 182.731 90.4775 183.583 90.8752 184.7C91.2777 185.813 91.4789 187.155 91.4789 188.727C91.4789 190.309 91.2801 191.658 90.8823 192.776C90.4846 193.888 89.9093 194.738 89.1565 195.325C88.4037 195.908 87.4922 196.199 86.4221 196.199ZM86.4221 194.636C87.4827 194.636 88.3066 194.125 88.8937 193.102C89.4808 192.08 89.7744 190.621 89.7744 188.727C89.7744 187.468 89.6394 186.395 89.3696 185.51C89.1044 184.625 88.7209 183.95 88.219 183.486C87.7218 183.022 87.1229 182.79 86.4221 182.79C85.371 182.79 84.5495 183.308 83.9576 184.345C83.3658 185.377 83.0698 186.838 83.0698 188.727C83.0698 189.987 83.2024 191.057 83.4676 191.938C83.7327 192.818 84.1139 193.488 84.611 193.947C85.1129 194.407 85.7166 194.636 86.4221 194.636Z" fill="black"/>
<path d="M358.744 111.256C358.053 111.256 357.426 111.125 356.862 110.865C356.299 110.6 355.851 110.219 355.52 109.722C355.188 109.22 355.023 108.614 355.023 107.903C355.023 107.278 355.146 106.772 355.392 106.384C355.638 105.991 355.967 105.683 356.379 105.46C356.791 105.238 357.246 105.072 357.743 104.963C358.245 104.849 358.749 104.759 359.256 104.693C359.919 104.608 360.456 104.544 360.868 104.501C361.285 104.454 361.588 104.376 361.777 104.267C361.971 104.158 362.068 103.969 362.068 103.699V103.642C362.068 102.941 361.876 102.397 361.493 102.009C361.114 101.62 360.539 101.426 359.767 101.426C358.967 101.426 358.339 101.601 357.885 101.952C357.43 102.302 357.111 102.676 356.926 103.074L355.335 102.506C355.619 101.843 355.998 101.327 356.472 100.957C356.95 100.583 357.471 100.323 358.034 100.176C358.602 100.025 359.161 99.9489 359.71 99.9489C360.061 99.9489 360.463 99.9915 360.918 100.077C361.377 100.157 361.82 100.325 362.246 100.581C362.677 100.837 363.034 101.223 363.318 101.739C363.602 102.255 363.744 102.946 363.744 103.812V111H362.068V109.523H361.983C361.869 109.759 361.68 110.013 361.415 110.283C361.15 110.553 360.797 110.782 360.357 110.972C359.916 111.161 359.379 111.256 358.744 111.256ZM359 109.75C359.663 109.75 360.222 109.62 360.676 109.359C361.135 109.099 361.481 108.763 361.713 108.351C361.95 107.939 362.068 107.506 362.068 107.051V105.517C361.997 105.602 361.841 105.68 361.599 105.751C361.363 105.818 361.088 105.877 360.776 105.929C360.468 105.976 360.167 106.019 359.874 106.057C359.585 106.09 359.35 106.118 359.17 106.142C358.735 106.199 358.328 106.291 357.949 106.419C357.575 106.542 357.272 106.729 357.04 106.98C356.813 107.226 356.699 107.562 356.699 107.989C356.699 108.571 356.914 109.011 357.345 109.31C357.781 109.603 358.332 109.75 359 109.75Z" fill="white"/>
<path d="M354.761 280V265.455H356.438V270.824H356.58C356.703 270.634 356.873 270.393 357.091 270.099C357.313 269.801 357.631 269.536 358.043 269.304C358.459 269.067 359.023 268.949 359.733 268.949C360.652 268.949 361.461 269.179 362.162 269.638C362.863 270.097 363.41 270.748 363.803 271.591C364.196 272.434 364.392 273.428 364.392 274.574C364.392 275.729 364.196 276.731 363.803 277.578C363.41 278.421 362.865 279.074 362.169 279.538C361.473 279.998 360.67 280.227 359.761 280.227C359.061 280.227 358.5 280.111 358.078 279.879C357.657 279.643 357.332 279.375 357.105 279.077C356.878 278.774 356.703 278.523 356.58 278.324H356.381V280H354.761ZM356.409 274.545C356.409 275.369 356.53 276.096 356.771 276.726C357.013 277.351 357.366 277.841 357.83 278.196C358.294 278.546 358.862 278.722 359.534 278.722C360.235 278.722 360.82 278.537 361.288 278.168C361.762 277.794 362.117 277.292 362.354 276.662C362.595 276.027 362.716 275.322 362.716 274.545C362.716 273.778 362.598 273.087 362.361 272.472C362.129 271.851 361.776 271.361 361.303 271.001C360.834 270.637 360.244 270.455 359.534 270.455C358.852 270.455 358.279 270.627 357.815 270.973C357.351 271.314 357.001 271.792 356.764 272.408C356.527 273.018 356.409 273.731 356.409 274.545Z" fill="white"/>
<path d="M151.114 130.318H152.591V131.114H151.284C150.773 131.114 150.33 131.196 149.956 131.362C149.582 131.528 149.293 131.75 149.089 132.03C148.886 132.304 148.784 132.615 148.784 132.96C148.784 133.472 149.033 133.884 149.53 134.196C150.027 134.509 150.688 134.665 151.511 134.665C152.307 134.665 152.92 134.513 153.351 134.21C153.782 133.907 154.068 133.443 154.21 132.818H155.972C155.91 133.33 155.761 133.794 155.524 134.21C155.287 134.627 154.973 134.984 154.58 135.283C154.187 135.576 153.725 135.804 153.195 135.964C152.664 136.121 152.075 136.199 151.426 136.199C150.583 136.199 149.828 136.069 149.161 135.808C148.498 135.543 147.974 135.174 147.591 134.7C147.212 134.227 147.023 133.675 147.023 133.045C147.023 132.757 147.077 132.454 147.186 132.136C147.3 131.819 147.501 131.523 147.79 131.249C148.083 130.974 148.498 130.751 149.033 130.581C149.572 130.406 150.266 130.318 151.114 130.318ZM152.591 130.773H151.114C150.285 130.773 149.613 130.692 149.097 130.531C148.585 130.37 148.192 130.162 147.918 129.906C147.648 129.646 147.463 129.362 147.364 129.054C147.269 128.746 147.222 128.448 147.222 128.159C147.222 127.487 147.397 126.911 147.747 126.433C148.098 125.955 148.585 125.588 149.21 125.332C149.84 125.077 150.569 124.949 151.398 124.949C152.226 124.949 152.951 125.074 153.571 125.325C154.196 125.576 154.696 125.938 155.07 126.412C155.448 126.881 155.683 127.444 155.773 128.102H154.011C153.893 127.61 153.611 127.212 153.166 126.909C152.721 126.606 152.132 126.455 151.398 126.455C150.65 126.455 150.051 126.613 149.601 126.93C149.151 127.243 148.926 127.652 148.926 128.159C148.926 128.614 149.12 128.978 149.509 129.253C149.902 129.527 150.493 129.665 151.284 129.665H152.591V130.773Z" fill="white"/>
<path d="M563.114 127.318H564.591V128.114H563.284C562.773 128.114 562.33 128.196 561.956 128.362C561.582 128.528 561.293 128.75 561.089 129.03C560.886 129.304 560.784 129.615 560.784 129.96C560.784 130.472 561.033 130.884 561.53 131.196C562.027 131.509 562.688 131.665 563.511 131.665C564.307 131.665 564.92 131.513 565.351 131.21C565.782 130.907 566.068 130.443 566.21 129.818H567.972C567.91 130.33 567.761 130.794 567.524 131.21C567.287 131.627 566.973 131.984 566.58 132.283C566.187 132.576 565.725 132.804 565.195 132.964C564.664 133.121 564.075 133.199 563.426 133.199C562.583 133.199 561.828 133.069 561.161 132.808C560.498 132.543 559.974 132.174 559.591 131.7C559.212 131.227 559.023 130.675 559.023 130.045C559.023 129.757 559.077 129.454 559.186 129.136C559.3 128.819 559.501 128.523 559.79 128.249C560.083 127.974 560.498 127.751 561.033 127.581C561.572 127.406 562.266 127.318 563.114 127.318ZM564.591 127.773H563.114C562.285 127.773 561.613 127.692 561.097 127.531C560.585 127.37 560.192 127.162 559.918 126.906C559.648 126.646 559.463 126.362 559.364 126.054C559.269 125.746 559.222 125.448 559.222 125.159C559.222 124.487 559.397 123.911 559.747 123.433C560.098 122.955 560.585 122.588 561.21 122.332C561.84 122.077 562.569 121.949 563.398 121.949C564.226 121.949 564.951 122.074 565.571 122.325C566.196 122.576 566.696 122.938 567.07 123.412C567.448 123.881 567.683 124.444 567.773 125.102H566.011C565.893 124.61 565.611 124.212 565.166 123.909C564.721 123.606 564.132 123.455 563.398 123.455C562.65 123.455 562.051 123.613 561.601 123.93C561.151 124.243 560.926 124.652 560.926 125.159C560.926 125.614 561.12 125.978 561.509 126.253C561.902 126.527 562.493 126.665 563.284 126.665H564.591V127.773Z" fill="white"/>
<path d="M151.114 255.318H152.591V256.114H151.284C150.773 256.114 150.33 256.196 149.956 256.362C149.582 256.528 149.293 256.75 149.089 257.03C148.886 257.304 148.784 257.615 148.784 257.96C148.784 258.472 149.033 258.884 149.53 259.196C150.027 259.509 150.688 259.665 151.511 259.665C152.307 259.665 152.92 259.513 153.351 259.21C153.782 258.907 154.068 258.443 154.21 257.818H155.972C155.91 258.33 155.761 258.794 155.524 259.21C155.287 259.627 154.973 259.984 154.58 260.283C154.187 260.576 153.725 260.804 153.195 260.964C152.664 261.121 152.075 261.199 151.426 261.199C150.583 261.199 149.828 261.069 149.161 260.808C148.498 260.543 147.974 260.174 147.591 259.7C147.212 259.227 147.023 258.675 147.023 258.045C147.023 257.757 147.077 257.454 147.186 257.136C147.3 256.819 147.501 256.523 147.79 256.249C148.083 255.974 148.498 255.751 149.033 255.581C149.572 255.406 150.266 255.318 151.114 255.318ZM152.591 255.773H151.114C150.285 255.773 149.613 255.692 149.097 255.531C148.585 255.37 148.192 255.162 147.918 254.906C147.648 254.646 147.463 254.362 147.364 254.054C147.269 253.746 147.222 253.448 147.222 253.159C147.222 252.487 147.397 251.911 147.747 251.433C148.098 250.955 148.585 250.588 149.21 250.332C149.84 250.077 150.569 249.949 151.398 249.949C152.226 249.949 152.951 250.074 153.571 250.325C154.196 250.576 154.696 250.938 155.07 251.412C155.448 251.881 155.683 252.444 155.773 253.102H154.011C153.893 252.61 153.611 252.212 153.166 251.909C152.721 251.606 152.132 251.455 151.398 251.455C150.65 251.455 150.051 251.613 149.601 251.93C149.151 252.243 148.926 252.652 148.926 253.159C148.926 253.614 149.12 253.978 149.509 254.253C149.902 254.527 150.493 254.665 151.284 254.665H152.591V255.773Z" fill="white"/>
<path d="M572.114 250.318H573.591V251.114H572.284C571.773 251.114 571.33 251.196 570.956 251.362C570.582 251.528 570.293 251.75 570.089 252.03C569.886 252.304 569.784 252.615 569.784 252.96C569.784 253.472 570.033 253.884 570.53 254.196C571.027 254.509 571.688 254.665 572.511 254.665C573.307 254.665 573.92 254.513 574.351 254.21C574.782 253.907 575.068 253.443 575.21 252.818H576.972C576.91 253.33 576.761 253.794 576.524 254.21C576.287 254.627 575.973 254.984 575.58 255.283C575.187 255.576 574.725 255.804 574.195 255.964C573.664 256.121 573.075 256.199 572.426 256.199C571.583 256.199 570.828 256.069 570.161 255.808C569.498 255.543 568.974 255.174 568.591 254.7C568.212 254.227 568.023 253.675 568.023 253.045C568.023 252.757 568.077 252.454 568.186 252.136C568.3 251.819 568.501 251.523 568.79 251.249C569.083 250.974 569.498 250.751 570.033 250.581C570.572 250.406 571.266 250.318 572.114 250.318ZM573.591 250.773H572.114C571.285 250.773 570.613 250.692 570.097 250.531C569.585 250.37 569.192 250.162 568.918 249.906C568.648 249.646 568.463 249.362 568.364 249.054C568.269 248.746 568.222 248.448 568.222 248.159C568.222 247.487 568.397 246.911 568.747 246.433C569.098 245.955 569.585 245.588 570.21 245.332C570.84 245.077 571.569 244.949 572.398 244.949C573.226 244.949 573.951 245.074 574.571 245.325C575.196 245.576 575.696 245.938 576.07 246.412C576.448 246.881 576.683 247.444 576.773 248.102H575.011C574.893 247.61 574.611 247.212 574.166 246.909C573.721 246.606 573.132 246.455 572.398 246.455C571.65 246.455 571.051 246.613 570.601 246.93C570.151 247.243 569.926 247.652 569.926 248.159C569.926 248.614 570.12 248.978 570.509 249.253C570.902 249.527 571.493 249.665 572.284 249.665H573.591V250.773Z" fill="white"/>
</g>
<defs>
<clipPath id="clip0_1_2">
<rect width="708" height="350" fill="white"/>
</clipPath>
</defs>
</svg>
